<?xml version="1.0" encoding="UTF-8" standalone="no"?>
<svg
   xmlns:dc="http://purl.org/dc/elements/1.1/"
   xmlns:cc="http://creativecommons.org/ns#"
   xmlns:rdf="http://www.w3.org/1999/02/22-rdf-syntax-ns#"
   xmlns:svg="http://www.w3.org/2000/svg"
   xmlns="http://www.w3.org/2000/svg"
   xmlns:sodipodi="http://sodipodi.sourceforge.net/DTD/sodipodi-0.dtd"
   xmlns:inkscape="http://www.inkscape.org/namespaces/inkscape"
   width="202pt"
   height="76pt"
   viewBox="0 0 202 75.999998"
   version="1.1"
   id="svg200"
   sodipodi:docname="kafka.svg"
   inkscape:export-filename="/home/murali/nncfsw/webs/questdb/questdb.io/src/assets/img/pages/index/integrations/grafana2.svg.png"
   inkscape:export-xdpi="13.02733"
   inkscape:export-ydpi="13.02733"
   inkscape:version="0.92.5 (2060ec1f9f, 2020-04-08)">
  <metadata
     id="metadata204">
    <rdf:RDF>
      <cc:Work
         rdf:about="">
        <dc:format>image/svg+xml</dc:format>
        <dc:type
           rdf:resource="http://purl.org/dc/dcmitype/StillImage" />
        <dc:title></dc:title>
      </cc:Work>
    </rdf:RDF>
  </metadata>
  <sodipodi:namedview
     pagecolor="#ffffff"
     bordercolor="#666666"
     borderopacity="1"
     objecttolerance="10"
     gridtolerance="10"
     guidetolerance="10"
     inkscape:pageopacity="0"
     inkscape:pageshadow="2"
     inkscape:window-width="1848"
     inkscape:window-height="1016"
     id="namedview202"
     showgrid="false"
     inkscape:zoom="0.39599208"
     inkscape:cx="291.50881"
     inkscape:cy="711.42418"
     inkscape:window-x="72"
     inkscape:window-y="27"
     inkscape:window-maximized="1"
     inkscape:current-layer="svg200"
     width="100pt" />
  <defs
     id="defs133">
    <clipPath
       id="clip1">
      <path
         d="m 125,186 h 17 v 24.01953 h -17 z m 0,0"
         id="path127"
         inkscape:connector-curvature="0" />
    </clipPath>
    <clipPath
       id="clip2">
      <path
         d="m 0,155 h 558.12891 v 5 H 0 Z m 0,0"
         id="path130"
         inkscape:connector-curvature="0" />
    </clipPath>
  </defs>
  <g
     id="g928"
     transform="matrix(0.01064648,0,0,-0.00989127,37.507446,74.017627)"
     style="fill:#000000;stroke:none">
    <path
       id="path896"
       d="m 3225,6726 c -55,-25 -118,-89 -143,-145 -16,-33 -17,-166 -17,-1581 V 3455 l 21,-45 c 75,-159 274,-212 416,-111 49,35 95,106 108,166 7,34 10,532 8,1565 -3,1697 4,1544 -76,1632 -52,58 -121,88 -202,88 -47,0 -79,-7 -115,-24 z"
       inkscape:connector-curvature="0" />
    <path
       id="path898"
       d="m 9380,6741 c -79,-24 -145,-87 -176,-167 -18,-47 -19,-102 -19,-1584 V 3455 l 24,-48 c 30,-60 106,-129 162,-146 62,-19 150,-16 202,7 56,25 114,83 141,141 l 21,46 v 1545 c 0,1726 7,1574 -72,1660 -52,59 -122,90 -198,89 -33,0 -71,-4 -85,-8 z"
       inkscape:connector-curvature="0" />
    <path
       id="path900"
       d="m 1695,5676 c -27,-12 -69,-44 -92,-69 -76,-82 -74,-58 -71,-878 l 3,-724 27,-51 c 111,-210 402,-201 502,15 21,45 21,55 21,776 0,692 -1,733 -19,779 -57,148 -229,219 -371,152 z"
       inkscape:connector-curvature="0" />
    <path
       id="path902"
       d="m 4755,5676 c -56,-25 -115,-86 -142,-143 -17,-35 -18,-90 -18,-778 v -740 l 28,-57 c 81,-166 292,-209 429,-88 26,23 55,61 69,92 l 24,53 v 740 c 0,826 5,771 -72,855 -53,60 -121,90 -203,90 -47,0 -79,-7 -115,-24 z"
       inkscape:connector-curvature="0" />
    <path
       id="path904"
       d="m 7815,5676 c -56,-25 -115,-86 -142,-143 -17,-35 -18,-90 -18,-778 v -740 l 28,-57 c 81,-166 292,-209 429,-88 26,23 55,61 69,92 l 24,53 v 740 c 0,826 5,771 -72,855 -53,60 -121,90 -203,90 -47,0 -79,-7 -115,-24 z"
       inkscape:connector-curvature="0" />
    <path
       id="path906"
       d="m 10875,5676 c -62,-28 -116,-87 -141,-152 -18,-46 -19,-87 -19,-779 v -730 l 28,-57 c 102,-207 397,-207 499,0 l 23,47 v 745 c 0,734 0,746 -21,790 -63,137 -234,200 -369,136 z"
       inkscape:connector-curvature="0" />
    <path
       id="path908"
       d="M 207,4926 C 102,4897 18,4801 5,4696 1,4668 0,4501 2,4325 c 3,-313 3,-321 27,-368 50,-101 161,-164 271,-154 105,9 188,68 234,167 20,43 21,61 21,400 0,354 0,355 -24,404 -62,125 -196,188 -324,152 z"
       inkscape:connector-curvature="0" />
    <path
       id="path910"
       d="m 6317,4926 c -91,-34 -163,-109 -187,-196 -6,-19 -10,-178 -10,-361 0,-372 4,-396 71,-473 63,-72 107,-91 209,-91 102,0 146,19 209,91 69,79 72,102 69,496 -3,331 -4,344 -25,384 -35,65 -71,103 -127,131 -62,31 -154,40 -209,19 z"
       inkscape:connector-curvature="0" />
    <path
       id="path912"
       d="m 12455,4929 c -82,-20 -166,-97 -193,-178 -8,-23 -12,-147 -12,-391 v -356 l 26,-52 c 100,-201 386,-200 492,2 l 27,51 v 360 c 0,344 -1,362 -21,405 -31,66 -68,106 -127,134 -60,29 -135,39 -192,25 z"
       inkscape:connector-curvature="0" />
    <path
       id="path914"
       d="M 2188,2299 C 1699,2247 1317,1928 1195,1469 1065,977 1250,462 1649,205 1851,75 2030,21 2290,13 c 183,-6 282,4 453,44 l 107,25 v 299 299 l -47,-24 c -72,-36 -197,-72 -298,-86 -303,-42 -564,78 -680,313 -175,356 23,772 405,853 153,32 373,6 540,-65 40,-17 74,-31 76,-31 2,0 4,132 4,294 v 294 l -77,20 c -113,30 -175,41 -298,52 -123,11 -175,11 -287,-1 z"
       inkscape:connector-curvature="0" />
    <path
       id="path916"
       d="m 5610,2299 c -96,-11 -234,-50 -308,-88 -168,-85 -271,-202 -334,-381 -26,-71 -36,-264 -19,-352 18,-92 72,-198 138,-269 104,-112 222,-177 466,-259 233,-78 314,-136 324,-232 10,-94 -62,-169 -197,-205 -136,-35 -415,-19 -642,38 -42,10 -81,19 -87,19 -13,0 -16,-496 -3,-504 5,-3 71,-15 148,-26 202,-31 536,-39 674,-16 218,37 372,108 495,231 136,135 195,281 195,484 0,183 -46,304 -164,429 -112,117 -215,174 -466,252 -209,65 -277,108 -301,190 -17,55 9,122 60,155 78,52 114,59 291,59 141,0 184,-4 292,-27 70,-15 130,-27 133,-27 3,0 5,105 5,234 v 234 l -52,12 c -245,52 -470,69 -648,49 z"
       inkscape:connector-curvature="0" />
    <path
       id="path918"
       d="m 8045,2300 c -457,-52 -828,-340 -968,-750 -77,-227 -85,-483 -22,-720 114,-424 462,-728 924,-805 194,-33 552,-5 704,54 l 27,11 v 290 c 0,159 -3,290 -8,290 -4,0 -39,-13 -79,-30 -128,-54 -232,-74 -383,-74 -119,1 -145,4 -216,27 -184,61 -310,187 -380,382 -28,78 -26,278 3,370 61,195 233,347 443,391 154,33 381,4 538,-66 35,-17 69,-30 73,-30 5,0 9,132 9,294 v 294 l -77,21 c -176,47 -429,69 -588,51 z"
       inkscape:connector-curvature="0" />
    <path
       id="path920"
       d="m 10327,2299 c -164,-17 -353,-82 -493,-169 -493,-306 -674,-945 -419,-1477 162,-340 462,-562 849,-629 137,-24 388,-15 517,19 305,80 550,260 703,517 259,436 201,1006 -140,1379 -182,198 -447,328 -737,360 -107,12 -165,12 -280,0 z m 275,-570 c 100,-21 196,-75 279,-158 118,-119 169,-243 169,-416 0,-171 -52,-297 -170,-415 -125,-125 -262,-177 -440,-167 -246,14 -437,160 -515,392 -109,323 67,663 390,756 70,20 209,24 287,8 z"
       inkscape:connector-curvature="0" />
    <path
       id="path922"
       d="m 3622,1158 3,-1113 278,-3 277,-2 v 1115 1115 h -280 -280 z"
       inkscape:connector-curvature="0" />
    <path
       id="path924"
       d="m 12240,320 c 0,-17 6,-20 50,-20 h 50 V 175 c 0,-118 1,-125 20,-125 19,0 20,7 20,125 v 125 h 51 c 43,0 50,3 47,18 -3,15 -18,17 -121,20 -112,3 -117,2 -117,-18 z"
       inkscape:connector-curvature="0" />
    <path
       id="path926"
       d="m 12500,191 c 0,-144 1,-151 20,-151 19,0 20,7 21,123 v 122 l 18,-45 c 10,-25 30,-80 45,-122 41,-115 53,-108 117,72 l 34,95 3,-122 c 2,-115 4,-123 22,-123 19,0 20,7 20,151 v 150 l -31,-3 c -31,-3 -33,-6 -72,-120 -23,-65 -44,-115 -48,-110 -4,4 -25,57 -47,117 -38,106 -41,110 -71,113 l -31,3 z"
       inkscape:connector-curvature="0" />
  </g>
</svg>
