<?xml version="1.0" encoding="UTF-8" standalone="no"?>
<svg
   xmlns:dc="http://purl.org/dc/elements/1.1/"
   xmlns:cc="http://creativecommons.org/ns#"
   xmlns:rdf="http://www.w3.org/1999/02/22-rdf-syntax-ns#"
   xmlns:svg="http://www.w3.org/2000/svg"
   xmlns="http://www.w3.org/2000/svg"
   xmlns:sodipodi="http://sodipodi.sourceforge.net/DTD/sodipodi-0.dtd"
   xmlns:inkscape="http://www.inkscape.org/namespaces/inkscape"
   width="154pt"
   height="76pt"
   viewBox="0 0 154 75.999998"
   version="1.1"
   id="svg200"
   sodipodi:docname="pg.svg"
   inkscape:export-filename="/home/murali/nncfsw/webs/questdb/questdb.io/src/assets/img/pages/index/integrations/grafana2.svg.png"
   inkscape:export-xdpi="13.02733"
   inkscape:export-ydpi="13.02733"
   inkscape:version="0.92.5 (2060ec1f9f, 2020-04-08)">
  <metadata
     id="metadata204">
    <rdf:RDF>
      <cc:Work
         rdf:about="">
        <dc:format>image/svg+xml</dc:format>
        <dc:type
           rdf:resource="http://purl.org/dc/dcmitype/StillImage" />
        <dc:title></dc:title>
      </cc:Work>
    </rdf:RDF>
  </metadata>
  <sodipodi:namedview
     pagecolor="#ffffff"
     bordercolor="#666666"
     borderopacity="1"
     objecttolerance="10"
     gridtolerance="10"
     guidetolerance="10"
     inkscape:pageopacity="0"
     inkscape:pageshadow="2"
     inkscape:window-width="1848"
     inkscape:window-height="1016"
     id="namedview202"
     showgrid="false"
     inkscape:zoom="0.39599208"
     inkscape:cx="291.50881"
     inkscape:cy="711.42418"
     inkscape:window-x="72"
     inkscape:window-y="27"
     inkscape:window-maximized="1"
     inkscape:current-layer="svg200"
     width="100pt" />
  <defs
     id="defs133">
    <clipPath
       id="clip1">
      <path
         d="m 125,186 h 17 v 24.01953 h -17 z m 0,0"
         id="path127"
         inkscape:connector-curvature="0" />
    </clipPath>
    <clipPath
       id="clip2">
      <path
         d="m 0,155 h 558.12891 v 5 H 0 Z m 0,0"
         id="path130"
         inkscape:connector-curvature="0" />
    </clipPath>
  </defs>
  <g
     id="g1271"
     transform="matrix(0.01288445,0,0,-0.0200089,8.8437228,68.914694)"
     style="fill:#000000;stroke:none">
    <path
       id="path1235"
       d="M 2,1793 0,0 h 5120 5120 v 520 520 H 5125 10 L 7,2313 C 5,3435 5,3373 2,1793 Z M 5110,510 c 0,-260 -2,-300 -15,-300 -13,0 -15,40 -15,300 0,260 2,300 15,300 13,0 15,-40 15,-300 z M 865,703 c 39,-18 43,-28 19,-41 -10,-5 -32,-3 -61,6 -61,20 -113,8 -131,-31 -27,-56 19,-107 97,-107 14,0 45,-9 68,-19 35,-16 44,-26 53,-60 18,-67 -7,-129 -62,-152 -63,-26 -181,-14 -214,22 -16,18 -16,21 -2,35 14,15 18,14 43,-2 19,-12 47,-18 87,-19 53,0 62,3 84,28 50,59 21,103 -79,117 -37,6 -76,15 -86,22 -30,18 -51,63 -51,107 0,100 121,148 235,94 z m 739,-1 c 62,-36 71,-61 71,-197 0,-133 -7,-154 -66,-196 -65,-48 -186,-20 -221,51 -21,41 -25,226 -8,277 28,79 142,112 224,65 z m 1590,0 c 62,-36 71,-61 71,-197 0,-134 -6,-153 -68,-198 -41,-31 -137,-27 -182,7 -47,36 -58,80 -54,219 4,105 6,118 28,141 50,53 140,65 205,28 z m 3927,-9 c 47,-31 60,-77 56,-204 -3,-96 -21,-157 -46,-151 -7,1 -10,-2 -6,-7 10,-17 -41,-42 -92,-45 -56,-3 -86,10 -128,54 -29,30 -30,35 -33,137 -5,134 1,164 40,202 57,56 138,61 209,14 z m 852,26 c 23,-6 51,-17 61,-25 19,-14 19,-14 1,-28 -16,-11 -24,-11 -52,0 -51,22 -100,18 -128,-11 -52,-51 -15,-110 78,-125 79,-12 119,-37 130,-80 18,-69 -10,-127 -75,-154 -46,-20 -141,-11 -191,17 -36,20 -37,22 -19,39 17,17 19,17 57,-3 56,-29 130,-22 162,15 13,15 23,36 23,47 0,32 -44,69 -83,69 -60,0 -97,12 -126,41 -66,66 -35,171 59,197 47,14 54,14 103,1 z m 742,0 c 44,-12 78,-37 69,-51 -3,-4 0,-7 7,-6 43,9 54,-254 13,-308 -33,-44 -66,-63 -119,-67 -35,-3 -61,1 -86,14 -58,29 -72,61 -77,166 -8,167 12,219 93,248 49,17 51,17 100,4 z M 1240,705 c 45,-23 60,-53 60,-116 0,-48 -4,-60 -27,-83 -32,-32 -53,-38 -141,-40 l -67,-1 -3,-86 c -3,-83 -4,-87 -27,-91 -14,-3 -27,-3 -30,0 -3,3 -5,101 -5,219 v 213 h 105 c 75,0 115,-4 135,-15 z m 781,-8 c 72,-48 71,-144 0,-195 l -37,-26 39,-76 c 21,-41 43,-79 48,-84 5,-6 9,-13 9,-17 0,-9 -47,-17 -58,-10 -5,3 -29,47 -54,96 l -45,90 -46,3 -47,3 v -95 -96 h -30 -30 v 208 c 0,115 3,212 7,215 3,4 52,7 108,7 90,0 106,-3 136,-23 z m 409,-2 c 0,-23 -4,-24 -61,-27 l -61,-3 2,-187 1,-188 h -31 -30 v 190 190 h -60 c -57,0 -60,1 -60,25 v 25 h 150 150 z m 478,3 c -3,-22 -7,-23 -108,-24 l -105,-2 v -73 c 0,-52 4,-74 13,-75 6,-1 48,-2 92,-3 72,-1 80,-3 80,-21 0,-18 -8,-20 -92,-22 l -93,-3 -3,-92 c -3,-91 -3,-93 -27,-93 h -25 v 215 215 h 136 c 135,0 135,0 132,-22 z m 692,7 c 42,-22 60,-53 60,-106 0,-50 -25,-93 -60,-104 -11,-4 -20,-11 -20,-17 0,-6 20,-51 45,-99 l 45,-89 h -33 c -33,0 -35,3 -80,96 l -47,95 -43,-3 -42,-3 -5,-95 c -3,-52 -8,-94 -12,-92 -5,1 -17,2 -28,2 -19,0 -20,6 -19,215 l 1,215 h 104 c 74,0 114,-4 134,-15 z m 463,-27 c 8,-24 31,-88 52,-143 59,-161 86,-238 83,-241 -2,-1 -14,-4 -27,-6 -20,-2 -26,4 -40,42 l -17,45 h -93 -94 l -14,-41 c -12,-35 -19,-43 -44,-46 -34,-5 -35,-14 18,132 20,52 51,141 71,198 34,96 38,102 63,102 23,0 30,-7 42,-42 z M 4320,530 V 340 h 110 110 v -24 -25 l -135,-3 -135,-3 v 218 217 h 25 25 z m 350,0 V 340 h 105 105 v -25 -25 h -135 -135 v 215 215 h 30 30 z m 860,133 c 12,-32 37,-101 55,-153 18,-52 45,-123 58,-157 l 26,-63 h -33 c -28,0 -33,4 -46,43 l -15,42 h -95 -95 l -9,-42 c -8,-40 -11,-43 -41,-43 h -33 l 38,108 c 21,59 53,148 72,197 20,50 38,98 41,108 4,10 17,17 30,17 20,0 28,-10 47,-57 z M 5780,530 V 340 h 110 110 v -25 -25 h -135 -135 v 215 215 h 25 25 z m 350,0 V 340 h 105 105 v -25 -25 h -135 -135 v 215 215 h 30 30 z m 688,168 c -3,-22 -8,-23 -111,-26 l -108,-3 3,-72 3,-72 93,-3 c 83,-2 92,-5 92,-22 0,-17 -9,-20 -92,-22 l -93,-3 -3,-92 c -3,-91 -3,-93 -27,-93 h -25 v 215 215 h 136 c 135,0 135,0 132,-22 z m 703,-1 c 19,-13 33,-29 32,-35 -2,-7 2,-12 7,-12 6,0 10,-23 10,-52 0,-47 -3,-54 -41,-89 l -41,-38 36,-64 c 19,-35 40,-76 46,-91 10,-26 9,-27 -21,-24 -29,3 -36,11 -79,93 l -46,90 h -45 -44 l -3,-93 -3,-92 h -29 -30 v 215 215 h 109 c 97,0 111,-2 142,-23 z m 867,9 c 64,-33 88,-105 56,-171 -23,-49 -64,-68 -154,-71 l -75,-3 -3,-86 -3,-85 h -29 -30 v 215 215 h 105 c 71,0 115,-5 133,-14 z m 783,-9 c 42,-28 62,-81 49,-128 -11,-36 -47,-79 -67,-79 -20,0 -16,-14 29,-103 53,-104 53,-105 12,-98 -31,6 -37,13 -79,99 l -45,93 -42,-3 -43,-3 -3,-93 -3,-92 h -27 -27 l -4,215 -3,215 h 109 c 98,0 114,-3 144,-23 z m 409,-2 c 0,-24 -2,-25 -65,-25 -62,0 -66,-1 -64,-22 1,-13 1,-98 1,-190 l -2,-168 h -25 -25 v 190 190 h -60 c -57,0 -60,1 -60,25 v 25 h 150 150 z"
       inkscape:connector-curvature="0" />
    <path
       id="path1237"
       d="m 1485,670 c -11,-4 -29,-18 -40,-30 -18,-19 -20,-36 -20,-135 0,-106 2,-115 24,-139 48,-51 126,-42 155,19 31,65 16,255 -22,279 -16,10 -76,14 -97,6 z"
       inkscape:connector-curvature="0" />
    <path
       id="path1239"
       d="m 3075,671 c -11,-5 -29,-19 -40,-31 -18,-19 -20,-36 -20,-135 0,-106 2,-115 24,-139 29,-31 73,-42 110,-26 46,18 56,51 56,171 0,103 -1,110 -25,133 -28,27 -75,39 -105,27 z"
       inkscape:connector-curvature="0" />
    <path
       id="path1241"
       d="m 7005,673 c -11,-2 -27,-7 -35,-10 -8,-3 -18,-6 -21,-5 -3,0 -6,-4 -7,-11 -31,-207 -14,-296 59,-312 37,-8 83,9 102,39 34,52 28,240 -9,275 -21,21 -58,30 -89,24 z"
       inkscape:connector-curvature="0" />
    <path
       id="path1243"
       d="m 8644,673 c -12,-2 -32,-15 -45,-29 -22,-24 -24,-33 -24,-139 0,-106 2,-115 24,-139 48,-51 126,-42 155,19 22,45 22,195 0,241 -18,38 -61,56 -110,47 z"
       inkscape:connector-curvature="0" />
    <path
       id="path1245"
       d="m 1063,664 c -2,-6 -3,-42 -1,-80 l 3,-69 h 73 c 65,0 76,3 93,24 35,43 13,129 -33,132 -99,4 -131,2 -135,-7 z"
       inkscape:connector-curvature="0" />
    <path
       id="path1247"
       d="m 1830,595 v -75 h 70 c 56,0 74,4 90,20 31,31 36,68 13,98 -18,25 -27,27 -97,30 l -76,3 z"
       inkscape:connector-curvature="0" />
    <path
       id="path1249"
       d="m 3420,595 v -75 h 70 c 85,0 110,18 110,78 0,58 -22,72 -108,72 h -72 z"
       inkscape:connector-curvature="0" />
    <path
       id="path1251"
       d="m 4016,621 c -8,-12 -66,-182 -66,-193 0,-5 32,-8 70,-8 44,0 70,4 70,11 0,16 -49,172 -59,188 -6,9 -11,10 -15,2 z"
       inkscape:connector-curvature="0" />
    <path
       id="path1253"
       d="m 5476,619 c -2,-8 -18,-52 -35,-97 -17,-46 -31,-88 -31,-93 0,-11 137,-12 144,-1 5,8 -56,188 -68,199 -3,3 -7,0 -10,-8 z"
       inkscape:connector-curvature="0" />
    <path
       id="path1255"
       d="m 7330,595 v -75 h 70 c 62,0 74,3 95,25 32,31 33,77 3,105 -18,16 -35,20 -95,20 h -73 z"
       inkscape:connector-curvature="0" />
    <path
       id="path1257"
       d="m 8212,593 3,-78 67,-3 c 61,-3 71,0 93,22 33,33 34,87 3,116 -18,16 -35,20 -95,20 h -74 z"
       inkscape:connector-curvature="0" />
    <path
       id="path1259"
       d="m 8984,671 c -2,-2 -4,-37 -4,-78 v -73 h 66 c 36,0 74,4 84,10 39,21 45,97 9,127 -13,11 -146,23 -155,14 z"
       inkscape:connector-curvature="0" />
    <path
       id="path1261"
       d="m 3172,2988 c -154,-16 -302,-88 -408,-200 -182,-192 -243,-428 -176,-683 57,-214 235,-394 458,-461 169,-51 400,-35 549,39 74,36 162,96 194,131 24,26 26,26 167,26 h 143 l 3,-97 3,-98 h 170 170 v 660 660 l -182,3 -181,2 -33,-52 c -17,-29 -41,-69 -52,-88 -27,-49 -111,-190 -169,-283 -26,-43 -48,-80 -48,-83 0,-4 -79,-138 -163,-274 -47,-76 -116,-152 -130,-143 -6,3 -7,1 -3,-5 11,-19 -110,-74 -175,-79 -102,-10 -224,34 -291,104 -54,56 -81,123 -86,218 -5,106 21,178 92,254 153,163 409,135 587,-63 21,-23 39,-39 41,-36 15,20 100,154 117,186 12,21 31,54 43,72 l 21,34 -47,47 c -26,26 -44,50 -41,54 3,4 2,5 -1,2 -4,-2 -25,9 -48,24 -158,109 -323,149 -524,129 z m 926,-860 c -15,-9 -83,-9 -116,0 -21,7 -20,11 50,129 l 73,123 3,-122 c 2,-90 -1,-124 -10,-130 z"
       inkscape:connector-curvature="0" />
    <path
       id="path1263"
       d="m 7596,2974 c -32,-8 -90,-31 -128,-51 -344,-181 -476,-561 -317,-911 16,-36 29,-66 29,-68 0,-2 -58,-4 -130,-4 h -130 l -2,513 -3,512 h -175 -175 v -660 -660 l 372,-3 372,-2 3,71 3,71 45,-35 c 104,-79 228,-123 380,-134 148,-10 308,33 427,114 103,70 176,153 238,268 l 25,48 v -202 -201 h 175 175 v 351 c 0,199 4,348 9,345 8,-5 69,-91 176,-246 22,-32 72,-101 110,-155 39,-54 75,-105 80,-114 6,-9 24,-34 40,-56 17,-22 43,-59 58,-82 l 27,-43 h 160 160 l -2,663 -3,662 h -175 -175 l -5,-350 -5,-350 -80,115 c -44,63 -102,146 -129,185 -66,94 -127,181 -211,303 l -70,102 h -157 -158 v -202 -203 l -28,50 c -48,88 -90,141 -154,200 -68,61 -196,132 -290,159 -71,20 -278,21 -362,0 z m 295,-344 c 87,-26 156,-88 195,-172 39,-84 40,-201 4,-292 -48,-123 -174,-210 -306,-211 -63,0 -79,4 -145,38 -79,40 -141,105 -177,184 -26,59 -22,214 7,274 76,159 250,233 422,179 z"
       inkscape:connector-curvature="0" />
    <path
       id="path1265"
       d="m 618,2964 c -5,-4 -8,-304 -8,-667 v -659 l 368,4 c 340,5 371,7 424,26 83,30 143,68 215,136 77,71 128,146 158,229 l 22,61 1,-225 2,-224 h 382 383 l 3,148 3,147 h -211 -210 v 110 110 l 178,2 177,3 3,148 3,147 h -181 -180 v 100 100 l 208,2 207,3 v 150 150 h -383 -383 v -214 c 0,-117 -2,-211 -6,-208 -3,4 -16,30 -27,59 -45,111 -169,243 -275,294 -129,61 -176,67 -536,72 -181,2 -333,0 -337,-4 z m 567,-305 c 129,-24 202,-77 252,-184 26,-55 28,-70 28,-175 0,-105 -2,-120 -28,-175 -59,-127 -149,-174 -344,-183 l -123,-5 v 367 366 h 78 c 43,0 105,-5 137,-11 z"
       inkscape:connector-curvature="0" />
    <path
       id="path1267"
       d="m 4502,2803 3,-168 133,-3 132,-3 v -494 -495 h 175 175 v 495 494 l 128,3 127,3 3,168 2,167 h -440 -440 z"
       inkscape:connector-curvature="0" />
    <path
       id="path1269"
       d="m 5437,2964 c -4,-4 -7,-304 -7,-666 v -658 h 180 180 v 250 250 h 165 165 v -250 -250 h 175 175 v 665 665 l -172,-2 -173,-3 -3,-247 -2,-248 h -165 -165 l -2,248 -3,247 -171,3 c -93,1 -173,-1 -177,-4 z"
       inkscape:connector-curvature="0" />
  </g>
</svg>
