<?xml version="1.0" encoding="UTF-8" standalone="no"?>
<svg
   xmlns:dc="http://purl.org/dc/elements/1.1/"
   xmlns:cc="http://creativecommons.org/ns#"
   xmlns:rdf="http://www.w3.org/1999/02/22-rdf-syntax-ns#"
   xmlns:svg="http://www.w3.org/2000/svg"
   xmlns="http://www.w3.org/2000/svg"
   xmlns:sodipodi="http://sodipodi.sourceforge.net/DTD/sodipodi-0.dtd"
   xmlns:inkscape="http://www.inkscape.org/namespaces/inkscape"
   width="51pt"
   height="66pt"
   viewBox="0 0 51 65.999999"
   version="1.1"
   id="svg200"
   sodipodi:docname="tableau.svg"
   inkscape:export-filename="/home/murali/nncfsw/webs/questdb/questdb.io/src/assets/img/pages/index/integrations/grafana2.svg.png"
   inkscape:export-xdpi="13.02733"
   inkscape:export-ydpi="13.02733"
   inkscape:version="0.92.5 (2060ec1f9f, 2020-04-08)">
  <metadata
     id="metadata204">
    <rdf:RDF>
      <cc:Work
         rdf:about="">
        <dc:format>image/svg+xml</dc:format>
        <dc:type
           rdf:resource="http://purl.org/dc/dcmitype/StillImage" />
        <dc:title></dc:title>
      </cc:Work>
    </rdf:RDF>
  </metadata>
  <sodipodi:namedview
     pagecolor="#ffffff"
     bordercolor="#666666"
     borderopacity="1"
     objecttolerance="10"
     gridtolerance="10"
     guidetolerance="10"
     inkscape:pageopacity="0"
     inkscape:pageshadow="2"
     inkscape:window-width="1848"
     inkscape:window-height="1016"
     id="namedview202"
     showgrid="false"
     inkscape:zoom="2.2400695"
     inkscape:cx="210.45035"
     inkscape:cy="104.30016"
     inkscape:window-x="72"
     inkscape:window-y="27"
     inkscape:window-maximized="1"
     inkscape:current-layer="svg200"
     width="100pt" />
  <defs
     id="defs133">
    <clipPath
       id="clip1">
      <path
         d="m 125,186 h 17 v 24.01953 h -17 z m 0,0"
         id="path127"
         inkscape:connector-curvature="0" />
    </clipPath>
    <clipPath
       id="clip2">
      <path
         d="m 0,155 h 558.12891 v 5 H 0 Z m 0,0"
         id="path130"
         inkscape:connector-curvature="0" />
    </clipPath>
  </defs>
  <g
     id="g552"
     transform="matrix(0.01493243,0,0,-0.01435266,-3.8114792,65.195696)"
     style="fill:#000000;stroke:none">
    <path
       id="path458"
       d="m 2075,4370 c -4,-6 -7,-23 -7,-39 -1,-15 -6,-28 -12,-27 -24,2 -21,-34 4,-61 16,-18 17,-22 4,-27 -23,-9 -5,-28 21,-22 25,6 58,-22 47,-41 -8,-13 -98,-21 -109,-9 -4,4 -2,16 5,26 18,29 -1,24 -30,-7 -31,-35 -87,-68 -113,-68 -16,0 -21,-8 -23,-37 -3,-29 -14,-48 -57,-90 -43,-42 -55,-60 -55,-85 0,-32 -27,-62 -89,-99 -16,-9 -35,-29 -44,-43 -9,-15 -28,-33 -42,-41 -22,-12 -26,-19 -21,-41 6,-29 -14,-58 -86,-127 -40,-37 -45,-51 -27,-80 18,-28 -8,-74 -47,-85 -38,-11 -64,-51 -46,-69 7,-7 12,-27 12,-45 0,-31 -2,-33 -35,-33 -32,0 -35,-2 -29,-24 5,-20 0,-25 -26,-34 -31,-11 -31,-12 -24,-64 4,-29 11,-56 16,-59 6,-4 8,-17 6,-30 -2,-18 -9,-24 -27,-24 -33,-1 -38,-22 -10,-51 19,-20 21,-28 11,-48 -6,-14 -23,-32 -37,-42 -14,-9 -25,-26 -25,-38 0,-12 -4,-26 -9,-31 -6,-6 -6,-38 0,-85 l 9,-75 -27,-20 c -54,-37 -125,-117 -119,-132 3,-8 6,-19 6,-24 0,-5 15,-9 33,-9 38,0 57,-15 57,-46 0,-24 15,-39 63,-63 l 32,-16 3,-102 c 1,-58 7,-103 12,-103 15,0 12,-62 -4,-79 -9,-10 -17,-51 -22,-104 -6,-82 -5,-89 15,-108 28,-26 27,-60 -4,-93 -21,-23 -25,-37 -25,-90 0,-35 -3,-105 -7,-156 -5,-78 -9,-93 -25,-98 -12,-3 -18,-14 -18,-33 0,-31 -23,-49 -64,-49 -14,0 -45,-5 -68,-10 -24,-6 -68,-15 -99,-21 -53,-9 -57,-12 -62,-42 -2,-18 0,-35 7,-39 19,-13 23,-9 18,17 -3,16 1,27 11,30 8,4 77,1 153,-6 77,-6 184,-15 239,-19 55,-5 150,-14 210,-19 61,-6 163,-15 228,-21 263,-22 366,-32 447,-41 47,-5 146,-14 220,-19 74,-4 152,-13 173,-18 21,-6 39,-6 43,-1 5,8 108,59 119,59 2,0 28,11 57,24 29,13 91,40 138,61 47,20 109,48 139,61 29,13 60,24 68,24 8,0 11,5 8,10 -3,6 -39,10 -79,10 -100,0 -136,8 -146,34 l -9,21 v -21 c -1,-24 -15,-31 -165,-85 -280,-101 -290,-103 -284,-53 3,22 12,29 68,46 36,12 110,36 165,54 55,17 117,35 137,39 41,8 66,29 48,40 -6,4 -10,60 -10,149 0,90 -4,146 -11,153 -7,7 -9,29 -4,60 14,102 17,233 5,233 -9,0 -10,24 -6,88 5,62 3,80 -4,64 -5,-13 -12,-51 -14,-84 -5,-57 -11,-77 -20,-67 -3,2 -7,57 -10,121 -4,81 -2,119 6,124 12,8 40,-24 33,-37 -3,-4 -1,-10 5,-14 5,-3 10,2 10,13 0,13 18,27 60,47 62,30 85,55 49,55 -37,0 -59,19 -59,50 0,21 5,30 16,30 25,0 54,-19 54,-36 0,-22 19,-13 38,18 20,33 13,48 -66,153 -40,52 -49,71 -38,73 23,5 20,22 -4,22 -11,0 -20,4 -20,9 0,16 27,31 45,24 16,-5 17,-3 10,18 -4,13 -10,55 -14,92 -4,48 -12,73 -24,82 -9,7 -17,25 -17,42 0,19 -10,39 -30,58 -27,26 -28,30 -15,45 11,13 14,28 9,57 -5,33 -12,43 -40,57 -42,19 -63,64 -40,82 23,17 20,31 -20,79 -25,31 -34,50 -29,64 3,10 1,22 -5,26 -6,3 -8,10 -5,15 3,5 1,11 -5,15 -5,3 -10,20 -10,36 0,25 -3,29 -19,24 -27,-8 -37,28 -20,78 10,29 10,42 2,44 -27,9 -56,45 -58,72 -2,17 -12,42 -24,58 -17,21 -21,35 -16,61 5,26 2,36 -16,50 -18,16 -21,28 -21,95 0,42 -3,79 -7,81 -11,7 -71,-35 -71,-50 0,-22 -31,-17 -37,6 -3,11 -9,20 -14,20 -11,0 -12,-27 -1,-32 5,-1 12,-15 16,-30 10,-43 -12,-34 -30,12 -16,40 -46,54 -58,28 -3,-7 -4,0 -1,15 5,26 3,28 -15,22 -15,-5 -26,-1 -34,11 -13,17 -14,16 -20,-4 -10,-30 -29,-16 -22,14 4,14 2,24 -4,24 -5,0 -10,-3 -10,-7 0,-5 -10,-19 -21,-33 l -20,-25 6,39 c 6,36 5,38 -9,27 -9,-8 -16,-19 -15,-25 3,-22 -1,-36 -10,-36 -6,0 -11,15 -13,33 -4,32 -4,32 -12,-10 -11,-57 -24,-54 -28,5 l -4,47 -8,-42 c -10,-52 -26,-47 -26,9 0,23 -3,38 -7,34 -4,-4 -6,-25 -4,-46 1,-22 -1,-45 -5,-51 -11,-18 -24,11 -25,56 l -1,40 -13,-30 -13,-30 -11,25 c -5,14 -10,19 -10,13 -2,-24 -21,-13 -21,11 0,17 7,27 22,32 33,10 243,7 264,-4 11,-6 39,-18 64,-28 25,-9 53,-26 63,-37 10,-11 20,-18 22,-15 3,3 -20,28 -50,55 -30,28 -55,59 -55,68 0,12 -6,16 -20,12 -14,-4 -26,3 -41,24 -11,16 -26,29 -33,29 -7,0 -23,14 -35,31 -23,31 -23,33 -6,61 14,24 15,35 6,51 -6,12 -15,34 -21,50 -9,27 -33,36 -45,17 z m -35,-280 c 0,-5 -18,-10 -40,-10 -22,0 -40,5 -40,10 0,6 18,10 40,10 22,0 40,-4 40,-10 z m 90,0 c 0,-5 -11,-10 -24,-10 -14,0 -28,5 -31,10 -4,6 7,10 24,10 17,0 31,-4 31,-10 z m 60,0 c 0,-5 -9,-10 -19,-10 -11,0 -23,5 -26,10 -4,6 5,10 19,10 14,0 26,-4 26,-10 z m -255,-130 c 3,-5 -1,-10 -10,-10 -9,0 -13,5 -10,10 3,6 8,10 10,10 2,0 7,-4 10,-10 z m -75,-69 c 0,-11 -4,-23 -10,-26 -17,-10 -11,-63 8,-74 16,-9 16,-10 -1,-16 -9,-4 -24,-2 -31,5 -21,17 -87,8 -100,-13 -9,-15 -6,-22 17,-39 27,-20 27,-21 8,-34 -16,-12 -23,-12 -48,1 -35,19 -53,19 -53,1 0,-23 29,-39 87,-47 46,-6 59,-5 68,8 8,10 19,13 33,9 32,-10 27,-26 -8,-26 -16,0 -30,-4 -30,-10 0,-5 -9,-10 -20,-10 -11,0 -20,-4 -20,-10 0,-5 11,-10 24,-10 14,0 28,5 31,10 3,6 28,10 56,10 27,0 49,-4 49,-10 0,-5 -20,-10 -45,-10 -25,0 -53,-4 -63,-9 -9,-5 -44,-15 -77,-21 -35,-8 -67,-21 -77,-32 -9,-11 -21,-17 -25,-15 -8,5 -117,-21 -155,-38 -25,-10 -22,8 5,33 13,12 41,24 62,26 89,9 123,24 95,41 -6,3 -5,15 2,31 9,19 9,30 0,45 -19,30 -14,64 13,93 34,37 107,68 140,60 15,-4 25,-2 25,5 0,6 -6,11 -14,11 -26,0 -26,16 2,48 31,36 52,41 52,13 z m 120,-1 c 0,-11 -6,-20 -14,-20 -8,0 -18,-5 -22,-11 -5,-9 4,-10 31,-5 28,6 36,4 33,-6 -3,-7 -13,-13 -24,-13 -10,-1 -25,-4 -32,-9 -19,-11 -41,0 -51,26 -7,19 -3,26 18,40 36,23 61,22 61,-2 z m 220,-28 c 0,-5 -6,-16 -13,-26 -12,-17 -14,-17 -20,-2 -5,12 -19,16 -53,16 -37,0 -45,-3 -40,-15 6,-18 -5,-20 -21,-4 -26,26 -2,39 73,39 41,0 74,-4 74,-8 z m 91,-12 c 10,0 19,-4 19,-9 0,-16 -59,-9 -65,7 -4,10 0,12 11,8 8,-3 24,-6 35,-6 z m 143,-19 c 10,-16 -5,-41 -25,-41 -22,0 -23,4 -9,31 11,20 25,25 34,10 z m -504,-61 c -21,-14 -30,-12 -30,4 0,18 22,27 35,14 6,-6 5,-12 -5,-18 z m 435,-4 c 23,6 26,4 23,-12 -3,-16 -13,-19 -57,-19 -58,-1 -70,10 -51,45 l 12,22 23,-22 c 17,-16 29,-19 50,-14 z m -190,-5 c -3,-11 -1,-22 4,-25 6,-4 4,-17 -5,-34 -7,-15 -14,-30 -14,-34 0,-12 69,-9 91,3 12,6 28,8 37,4 26,-10 -33,-35 -90,-37 -27,-1 -52,-6 -54,-10 -3,-4 -20,-8 -39,-8 -19,0 -37,-4 -40,-10 -8,-13 -52,-13 -60,-1 -9,15 36,35 72,33 62,-4 89,60 31,74 -28,6 -30,8 -13,14 35,10 75,33 75,42 0,4 3,8 6,8 3,0 3,-9 -1,-19 z m 347,-23 c -20,-20 -15,-58 8,-58 23,0 27,-15 5,-24 -17,-6 -21,-36 -4,-36 13,0 2,-39 -19,-62 -16,-19 -52,-24 -52,-8 0,6 -4,10 -10,10 -5,0 -10,-11 -10,-24 0,-31 -14,-40 -30,-21 -26,31 36,99 66,74 7,-6 20,-9 29,-6 12,5 12,10 0,33 -8,15 -11,32 -8,38 4,5 6,29 4,53 -2,50 6,70 22,54 8,-8 8,-14 -1,-23 z m -662,-32 c 0,-8 -4,-18 -10,-21 -5,-3 -10,3 -10,14 0,12 5,21 10,21 6,0 10,-6 10,-14 z m 188,-11 c -7,-7 -22,-25 -32,-39 -18,-25 -36,-34 -36,-18 0,15 62,82 71,76 5,-3 4,-11 -3,-19 z m 64,-10 c 1,-13 -43,-36 -55,-28 -12,7 24,44 40,41 8,-2 14,-7 15,-13 z m 454,-62 c -10,-10 -19,5 -10,18 6,11 8,11 12,0 2,-7 1,-15 -2,-18 z m -243,-54 c 40,-33 47,-53 21,-63 -21,-8 -34,1 -27,19 6,17 -12,21 -22,5 -12,-19 -64,-11 -76,11 -10,19 -12,20 -26,6 -28,-28 -9,-49 42,-46 63,4 66,-8 4,-16 -36,-5 -54,-4 -57,4 -2,6 -10,11 -18,11 -17,0 -19,27 -2,32 7,3 9,12 5,23 -7,16 -10,15 -37,-11 -35,-35 -38,-54 -7,-54 12,0 28,-4 35,-9 8,-5 -13,-12 -57,-19 -85,-14 -94,-15 -86,-2 3,5 11,7 18,4 7,-2 22,5 33,17 19,22 19,22 -1,14 -45,-17 -65,-18 -65,-1 0,27 51,65 88,66 17,0 32,5 32,10 0,6 17,10 38,11 20,1 48,5 62,9 45,14 65,10 103,-21 z m 257,21 c 0,-5 -4,-10 -10,-10 -5,0 -10,5 -10,10 0,6 5,10 10,10 6,0 10,-4 10,-10 z m -1020,-20 c 0,-5 -4,-10 -9,-10 -6,0 -13,5 -16,10 -3,6 1,10 9,10 9,0 16,-4 16,-10 z m 403,-24 c 22,-17 20,-75 -3,-87 -8,-4 -82,-19 -165,-34 -82,-15 -163,-33 -180,-40 -47,-20 -187,-55 -219,-55 -9,0 -16,5 -16,10 0,6 7,10 15,10 15,0 25,4 72,28 13,7 36,12 53,12 25,0 30,4 30,23 -1,21 -1,22 -15,3 -17,-22 -40,-10 -30,15 5,13 27,21 118,46 9,2 21,12 27,22 7,14 27,20 87,25 43,4 85,11 92,16 19,11 41,2 34,-16 -3,-8 0,-14 6,-14 6,0 12,5 12,10 1,6 3,15 4,20 1,6 3,12 4,15 2,11 57,4 74,-9 z m 647,-25 c 0,-5 -7,-25 -16,-46 -14,-34 -14,-39 0,-54 24,-26 20,-32 -18,-28 -48,5 -68,24 -64,61 3,27 6,31 31,28 17,-2 27,2 27,11 0,14 19,37 32,37 4,0 8,-4 8,-9 z m -102,-13 c -3,-7 -11,-13 -18,-13 -7,0 -15,6 -17,13 -3,7 4,12 17,12 13,0 20,-5 18,-12 z m -48,-43 c 20,-24 6,-28 -15,-5 -10,11 -13,20 -8,20 6,0 16,-7 23,-15 z m -120,-19 c 0,-8 -4,-17 -9,-21 -12,-7 -24,12 -16,25 9,15 25,12 25,-4 z m -190,-16 c 0,-12 -28,-25 -36,-17 -9,9 6,27 22,27 8,0 14,-5 14,-10 z m 214,-39 c 14,-15 15,-24 6,-40 -6,-12 -17,-21 -25,-21 -8,0 -15,-6 -15,-14 0,-9 7,-12 20,-9 14,4 20,0 20,-11 0,-11 -9,-16 -29,-16 -58,0 -91,-12 -91,-32 0,-12 4,-17 12,-12 23,15 57,13 51,-2 -3,-8 -11,-14 -18,-14 -8,0 -17,-5 -21,-11 -5,-9 3,-10 30,-5 36,7 36,7 36,-27 0,-33 -2,-35 -42,-42 -24,-4 -62,-8 -85,-9 -25,0 -43,-5 -43,-12 0,-12 -124,-29 -139,-20 -5,3 -43,-1 -84,-9 -92,-18 -107,-13 -107,29 0,18 -6,38 -12,45 -10,11 -10,14 0,18 6,3 12,8 12,13 0,13 -57,32 -78,26 -25,-8 -83,-65 -100,-97 -7,-14 -27,-30 -43,-36 -27,-11 -29,-10 -29,13 0,13 5,24 11,24 6,0 8,7 5,16 -4,10 1,25 11,36 13,15 14,21 4,27 -9,6 -5,19 19,55 31,45 50,58 50,34 0,-7 -9,-24 -19,-37 -15,-20 -17,-28 -7,-43 9,-15 8,-21 -4,-28 -8,-5 -11,-12 -8,-16 4,-4 24,10 44,30 39,39 41,56 4,36 -28,-15 -36,-7 -15,14 19,18 51,21 60,6 4,-6 15,-8 25,-5 11,4 36,-10 73,-40 31,-25 65,-45 76,-45 24,0 25,-4 11,-30 -13,-24 0,-32 24,-15 12,9 17,21 13,36 -3,12 -1,29 4,38 7,11 7,25 0,44 -11,29 -31,37 -31,12 0,-8 6,-15 12,-15 7,0 0,-12 -14,-27 -30,-29 -50,-24 -30,7 17,28 15,40 -9,40 -16,0 -20,5 -16,19 4,15 -2,20 -26,24 -17,2 -42,-2 -56,-9 -29,-16 -91,-19 -91,-5 0,9 27,14 138,27 37,5 52,3 52,-5 0,-7 5,-9 10,-6 6,3 10,15 10,26 0,10 6,19 14,19 15,0 26,-21 26,-51 0,-10 6,-19 14,-19 8,0 18,-9 21,-20 3,-11 10,-20 15,-20 4,0 1,-19 -7,-42 -19,-56 -12,-72 30,-63 17,3 53,9 80,12 60,6 62,23 2,23 -33,0 -45,4 -45,15 0,8 -4,15 -10,15 -5,0 -10,7 -10,15 0,17 36,39 50,30 6,-3 10,-2 10,3 0,5 -10,12 -22,16 -17,4 -20,8 -11,17 9,9 9,16 0,31 -26,42 89,94 122,54 13,-16 5,-71 -15,-103 -10,-15 -24,-23 -42,-23 -35,0 -68,-23 -57,-40 5,-9 22,-10 56,-6 32,4 49,3 49,-4 0,-8 6,-8 20,0 22,12 27,49 8,69 -11,10 -8,16 10,31 20,16 21,22 11,39 -10,15 -10,23 1,35 12,15 14,15 31,0 10,-9 15,-22 12,-30 -3,-8 0,-14 6,-14 19,0 13,58 -6,62 -14,3 -11,7 12,20 40,21 49,21 69,-1 z m 301,9 c 11,-17 -5,-32 -21,-19 -7,6 -11,15 -8,20 7,12 21,11 29,-1 z m -190,-20 c 3,-5 1,-10 -4,-10 -6,0 -11,5 -11,10 0,6 2,10 4,10 3,0 8,-4 11,-10 z m -37,-49 c 2,-28 0,-41 -7,-36 -6,3 -11,15 -11,26 0,11 -5,29 -11,41 -9,17 -8,19 8,16 13,-2 19,-14 21,-47 z m 252,15 c 0,-11 -19,-15 -25,-6 -3,5 1,10 9,10 9,0 16,-2 16,-4 z m -1142,-28 c -7,-20 -48,-23 -48,-4 0,11 9,16 26,16 16,0 24,-5 22,-12 z m 918,-53 c -24,-19 -25,-24 -16,-51 6,-17 9,-55 8,-85 -3,-49 -5,-54 -28,-58 -25,-3 -25,-3 -6,18 18,20 18,42 1,113 -7,28 2,85 11,75 3,-3 15,4 27,16 16,16 22,17 25,7 3,-7 -7,-23 -22,-35 z m -617,6 c 16,-10 6,-31 -15,-31 -8,0 -14,9 -14,20 0,22 7,25 29,11 z m -272,-12 c 9,-9 9,-16 0,-30 -9,-14 -9,-21 1,-31 17,-17 -23,-58 -59,-58 -15,0 -31,-5 -34,-10 -11,-18 15,-40 40,-34 17,4 24,1 27,-12 4,-25 89,-32 112,-9 13,14 16,14 16,2 0,-21 -27,-40 -45,-33 -25,9 -115,-15 -115,-32 0,-9 -6,-12 -16,-8 -9,4 -22,2 -28,-2 -6,-5 -45,-12 -88,-15 -84,-7 -96,0 -78,48 6,16 6,25 0,25 -6,0 -10,5 -10,10 0,6 7,10 15,10 8,0 15,-9 15,-19 0,-26 10,-51 21,-51 5,0 9,9 9,20 0,11 5,20 10,20 6,0 10,-6 10,-14 0,-23 17,-28 33,-11 9,8 28,20 44,26 l 28,11 -22,15 c -28,19 -29,32 -4,75 11,21 16,45 14,64 -4,23 0,33 12,38 23,8 40,-3 26,-17 -6,-6 -11,-26 -11,-44 0,-40 22,-44 45,-9 15,23 12,56 -6,56 -10,0 11,29 22,30 3,0 10,-5 16,-11 z m 1024,-18 c 20,-16 22,-23 13,-38 -14,-22 -62,-30 -69,-10 -7,17 11,67 24,67 5,0 19,-9 32,-19 z m -721,-21 c 0,-11 -4,-20 -10,-20 -5,0 -10,9 -10,20 0,11 5,20 10,20 6,0 10,-9 10,-20 z m 620,12 c 0,-13 -12,-22 -22,-16 -10,6 -1,24 13,24 5,0 9,-4 9,-8 z m 192,-18 c -6,-28 -11,-30 -26,-8 -11,14 -11,21 -3,26 19,12 32,3 29,-18 z m -312,-23 c 0,-16 6,-31 13,-34 7,-2 12,-23 12,-58 v -54 l 38,-3 c 41,-4 48,-16 17,-32 -19,-10 -19,-11 0,-30 21,-21 27,-65 10,-75 -6,-4 -5,-13 2,-25 11,-18 13,-17 25,12 10,24 11,40 3,61 -12,36 -13,47 -2,47 28,0 44,-130 21,-171 -10,-20 -11,-20 -30,-3 -18,16 -20,16 -37,1 -24,-22 -32,-21 -32,3 0,13 7,20 20,20 25,0 25,8 1,40 -17,22 -22,23 -47,12 -21,-10 -29,-10 -35,-1 -4,7 -17,9 -33,5 -21,-5 -26,-3 -26,12 0,25 11,34 26,21 17,-14 35,-3 27,16 -4,11 2,15 21,15 14,0 26,4 26,9 0,5 -22,8 -50,5 l -50,-4 v 40 c 0,29 4,40 15,40 9,0 15,-9 15,-25 0,-29 17,-33 36,-7 16,20 19,108 4,117 -5,3 -10,22 -10,41 0,19 5,34 10,34 6,0 10,-13 10,-29 z m 264,-9 c -12,-8 -24,-92 -13,-92 4,0 15,-12 25,-27 11,-18 12,-24 3,-17 -8,6 -21,12 -29,13 -64,6 -110,19 -110,31 0,4 11,15 24,23 23,15 24,15 31,-6 7,-21 7,-21 12,-2 3,11 9,24 14,30 5,5 9,17 9,27 0,10 5,18 10,18 6,0 10,8 10,17 0,14 3,14 12,5 9,-9 10,-15 2,-20 z m -1249,-8 c 21,-14 36,-54 20,-54 -22,0 -65,34 -65,50 0,24 13,25 45,4 z m 408,9 c -7,-2 -21,-2 -30,0 -10,3 -4,5 12,5 17,0 24,-2 18,-5 z m 684,-25 c -3,-8 -6,-5 -6,6 -1,11 2,17 5,13 3,-3 4,-12 1,-19 z m 199,-9 c 3,-6 14,-9 24,-6 28,7 46,-8 32,-26 -12,-14 -9,-40 14,-116 6,-19 4,-22 -12,-19 -20,3 -31,34 -33,89 -1,19 -7,44 -15,55 -15,19 -15,19 -30,-1 -15,-20 -15,-20 -16,1 0,32 21,46 36,23 z m -171,-9 c 3,-5 1,-10 -4,-10 -6,0 -11,5 -11,10 0,6 2,10 4,10 3,0 8,-4 11,-10 z m -230,-126 c 7,-70 7,-129 -1,-152 -6,-21 -4,-22 21,-16 23,6 26,4 23,-12 -4,-21 -19,-23 -233,-44 -253,-23 -282,-25 -307,-16 -20,7 -36,5 -60,-7 -53,-26 -458,-62 -468,-42 -3,6 12,11 34,12 49,3 57,15 54,77 -2,35 1,50 11,54 11,4 13,-6 8,-51 -6,-66 3,-79 53,-68 l 35,7 8,74 c 8,73 29,116 49,104 5,-4 8,-43 6,-88 -3,-87 13,-122 23,-48 3,28 13,48 27,57 15,11 22,28 24,63 2,35 7,48 21,50 13,3 17,-3 17,-28 0,-18 4,-29 10,-25 6,3 10,17 10,31 0,13 5,24 10,24 16,0 12,-108 -5,-127 -8,-10 -24,-28 -35,-40 -11,-14 -15,-25 -9,-29 17,-10 35,3 53,40 14,31 21,35 42,30 27,-7 31,3 9,32 -21,28 -19,32 18,36 24,2 33,8 35,26 2,12 10,22 19,22 8,0 17,9 20,20 7,27 49,54 56,36 3,-9 15,-12 31,-9 29,6 28,13 30,-116 1,-91 18,-119 34,-59 l 9,33 8,-28 c 7,-26 10,-28 54,-25 45,3 46,4 49,38 10,136 22,170 57,156 12,-4 15,-24 15,-96 0,-53 4,-90 10,-90 6,0 10,35 10,85 0,50 4,85 10,85 6,0 10,-33 10,-80 0,-73 2,-80 20,-80 19,0 20,7 20,103 0,98 1,105 23,114 28,13 28,13 32,-33 z m 539,31 c 3,-8 1,-15 -3,-15 -5,0 -11,7 -15,15 -3,8 -1,15 3,15 5,0 11,-7 15,-15 z m -684,-15 c 0,-5 -6,-10 -14,-10 -8,0 -18,5 -21,10 -3,6 3,10 14,10 12,0 21,-4 21,-10 z m 510,-30 c 0,-5 -4,-10 -10,-10 -5,0 -10,5 -10,10 0,6 5,10 10,10 6,0 10,-4 10,-10 z m -16,-26 c 9,-3 16,-14 16,-24 0,-11 5,-22 11,-26 8,-4 7,-9 -2,-14 -10,-7 -10,-16 1,-49 10,-33 11,-43 0,-56 -10,-12 -10,-15 4,-15 21,0 21,-19 -1,-27 -9,-4 -36,4 -62,18 -32,17 -40,25 -27,27 15,3 17,13 15,78 -3,58 0,77 11,84 18,12 15,11 34,4 z m -654,-46 c 0,-18 -5,-40 -10,-48 -7,-11 -10,-2 -10,33 0,26 5,47 10,47 6,0 10,-15 10,-32 z m 857,5 c 9,-22 -12,-37 -27,-18 -7,8 -19,15 -26,15 -8,0 -14,6 -14,13 0,18 60,9 67,-10 z m -1537,-44 c 0,6 5,11 10,11 6,0 10,-30 10,-70 0,-62 -2,-70 -19,-70 -19,0 -51,61 -51,98 0,27 21,44 37,31 9,-8 13,-8 13,0 z m 1443,-49 c -3,-19 -5,-42 -4,-50 1,-8 2,-28 2,-43 0,-20 6,-31 22,-37 12,-5 16,-9 9,-9 -7,-1 -22,5 -35,12 -12,6 -23,13 -25,14 -2,1 1,11 7,22 9,17 8,24 -10,42 -13,13 -18,26 -13,37 4,9 6,20 6,25 -1,4 6,15 16,25 22,24 33,8 25,-38 z m -1178,40 c 3,-5 -1,-10 -10,-10 -9,0 -13,5 -10,10 3,6 8,10 10,10 2,0 7,-4 10,-10 z m 1270,-71 c -5,-13 -2,-25 6,-30 10,-6 10,-13 1,-33 -10,-23 -9,-26 12,-32 30,-7 52,-50 30,-58 -23,-9 -36,3 -29,25 7,20 -9,27 -20,9 -3,-5 -15,-10 -26,-10 -10,0 -19,5 -19,10 0,6 3,10 8,10 4,0 5,25 3,56 -2,40 1,59 10,65 23,14 31,10 24,-12 z m -209,-80 c 49,-23 117,-55 152,-71 34,-16 62,-33 62,-37 0,-13 -53,0 -82,20 -14,11 -31,19 -37,19 -6,0 -29,11 -50,24 -21,14 -41,22 -45,19 -3,-3 -12,-1 -20,6 -8,6 -38,20 -67,31 -29,10 -55,24 -58,31 -6,20 47,5 145,-42 z m -239,12 c 38,-24 135,-139 130,-155 -6,-18 -120,-28 -677,-56 -113,-6 -270,-15 -350,-20 -338,-22 -413,-24 -404,-8 22,37 86,81 117,81 35,0 65,20 77,52 7,17 23,23 96,33 130,17 379,35 411,29 15,-3 36,1 47,8 12,7 68,16 126,20 85,5 344,28 385,34 6,0 24,-8 42,-18 z m 140,-21 c 54,-22 104,-40 111,-40 6,0 12,-4 12,-10 0,-5 6,-10 14,-10 8,0 31,-9 53,-20 21,-11 64,-31 96,-45 33,-15 73,-43 90,-62 49,-55 81,-102 74,-109 -7,-7 -156,43 -171,57 -6,5 -17,9 -27,9 -25,0 -196,66 -211,81 -8,8 -25,30 -38,49 -13,19 -42,54 -65,78 -39,43 -52,62 -41,62 3,0 50,-18 103,-40 z m 170,24 c -3,-3 -12,-4 -19,-1 -8,3 -5,6 6,6 11,1 17,-2 13,-5 z M 1240,2624 c 0,-8 -7,-14 -15,-14 -8,0 -15,9 -15,20 0,13 5,18 15,14 8,-4 15,-12 15,-20 z m 1223,-94 c -4,-4 -35,-10 -68,-14 -68,-7 -56,9 18,23 44,8 65,4 50,-9 z m -170,-68 c 5,-24 6,-46 4,-48 -3,-3 -46,-8 -96,-11 l -91,-6 v 50 c 0,27 3,53 7,57 4,4 43,5 87,4 l 80,-3 z m 307,7 c 21,-38 9,-63 -35,-70 -22,-4 -43,-5 -47,-2 -16,9 -7,47 15,68 28,29 53,31 67,4 z m -1260,-38 v -49 l -80,-7 c -89,-8 -110,0 -110,41 0,16 -6,25 -17,25 -10,1 -25,3 -33,4 -8,1 -22,3 -29,4 -10,0 -12,4 -5,11 5,5 47,11 94,13 47,1 106,4 133,5 l 47,2 z m 283,-98 c 15,-3 27,-12 27,-20 0,-28 33,-63 71,-75 l 39,-11 v -71 c 1,-47 6,-78 15,-90 20,-27 19,-50 -5,-71 -16,-15 -20,-31 -20,-90 0,-47 5,-78 15,-91 19,-25 19,-58 0,-74 -12,-10 -15,-39 -15,-141 0,-103 -3,-131 -16,-143 -8,-9 -21,-16 -27,-16 -7,0 -54,-5 -106,-10 -67,-7 -97,-7 -101,1 -4,6 -8,70 -9,142 -1,103 -5,134 -16,143 -20,15 -20,83 0,90 12,5 15,26 15,98 0,51 -4,96 -9,101 -19,19 -20,85 -2,95 11,6 16,24 17,57 4,137 3,133 24,133 11,0 23,7 25,15 3,8 7,22 10,31 3,11 11,14 23,9 9,-3 29,-9 45,-12 z m 762,-19 c 12,-13 15,-32 13,-88 -3,-63 -5,-71 -23,-74 -19,-3 -21,-10 -20,-65 0,-34 -4,-70 -8,-79 -7,-13 -3,-17 20,-20 28,-3 28,-3 31,-83 2,-57 -1,-82 -10,-90 -11,-8 -12,-27 -5,-90 15,-140 19,-372 7,-396 -11,-19 -17,-20 -83,-14 -112,11 -106,1 -100,177 4,107 9,156 18,163 7,6 15,35 17,65 2,30 8,62 12,71 5,12 1,18 -13,22 -19,5 -21,13 -21,86 0,77 1,81 24,87 22,5 23,8 14,35 -6,17 -8,48 -4,70 5,30 3,41 -9,45 -12,5 -15,24 -15,89 v 83 l 38,10 c 57,15 99,14 117,-4 z m 195,2 c 6,-8 11,-23 10,-33 -4,-32 0,-41 19,-46 16,-4 20,-18 25,-93 3,-49 6,-99 5,-111 -4,-96 -1,-244 6,-271 5,-23 3,-39 -9,-57 -14,-22 -16,-41 -10,-124 4,-54 4,-115 0,-135 l -7,-36 h -59 -60 v 124 c 0,98 -3,126 -15,136 -17,14 -21,105 -5,115 13,8 13,208 1,220 -11,11 -12,50 -5,200 4,77 9,103 21,113 23,16 68,15 83,-2 z m -1179,-98 c 2,-48 0,-90 -4,-94 -4,-4 -5,-22 -1,-40 3,-17 1,-41 -5,-53 -9,-17 -8,-22 9,-31 17,-9 20,-21 20,-90 0,-70 -2,-81 -21,-90 -14,-8 -17,-15 -11,-23 17,-22 26,-111 25,-267 v -155 l -75,1 c -42,1 -88,4 -102,8 l -27,7 6,137 c 6,112 10,142 26,164 10,15 19,41 19,57 0,39 9,61 26,61 8,0 14,5 14,10 0,6 -14,10 -30,10 -39,0 -43,13 -33,97 8,64 9,68 36,71 30,4 36,19 11,29 -13,5 -15,15 -9,49 5,36 3,44 -9,44 -13,0 -16,15 -16,84 0,56 4,87 13,94 13,11 117,21 129,12 3,-3 8,-44 9,-92 z m 799,-3 c 0,-73 3,-94 15,-99 20,-7 20,-84 1,-105 -16,-17 -21,-166 -10,-269 4,-34 2,-58 -5,-65 -7,-7 -11,-55 -11,-123 0,-73 -4,-115 -11,-120 -6,-4 -48,-6 -93,-5 -62,1 -84,6 -93,18 -9,12 -13,59 -13,149 0,73 -4,135 -9,138 -17,11 -19,45 -4,73 15,28 14,141 -2,224 -4,23 -3,39 4,43 6,4 11,36 11,74 0,65 1,68 34,90 19,13 36,34 38,45 3,19 11,23 63,27 33,3 66,4 73,2 8,-3 12,-31 12,-97 z m 627,-233 c 8,-5 10,-29 7,-77 -11,-164 -12,-191 -3,-200 8,-11 15,-292 7,-300 -2,-3 -15,-6 -29,-7 l -24,-3 -3,144 c -2,95 1,148 9,157 8,9 9,45 3,121 -12,158 -6,190 33,165 z M 1415,1336 c 39,-3 129,-10 200,-16 72,-6 234,-19 360,-30 127,-11 275,-22 330,-26 55,-4 108,-11 118,-16 18,-9 24,-53 7,-63 -8,-5 -164,5 -300,20 -219,23 -488,48 -685,65 -66,6 -149,15 -183,20 -35,5 -70,6 -77,4 -18,-7 -25,8 -18,35 6,22 9,23 92,18 47,-2 118,-7 156,-11 z"
       inkscape:connector-curvature="0" />
    <path
       id="path460"
       d="m 1684,3618 c -4,-6 1,-17 9,-25 14,-14 17,-14 31,0 9,9 16,18 16,20 0,10 -51,14 -56,5 z"
       inkscape:connector-curvature="0" />
    <path
       id="path462"
       d="m 1920,3524 c 0,-9 -8,-23 -17,-30 -16,-12 -15,-13 10,-14 22,0 27,4 27,24 0,14 -4,28 -10,31 -5,3 -10,-1 -10,-11 z"
       inkscape:connector-curvature="0" />
    <path
       id="path464"
       d="m 1825,3490 c -3,-5 1,-13 10,-16 22,-9 29,1 11,15 -10,8 -16,9 -21,1 z"
       inkscape:connector-curvature="0" />
    <path
       id="path466"
       d="m 1726,3475 c -4,-11 -13,-14 -30,-9 -13,3 -27,1 -31,-5 -3,-6 -11,-9 -16,-6 -5,4 -9,-1 -9,-9 0,-18 16,-21 25,-6 3,6 24,10 46,10 27,0 39,4 39,14 0,21 -17,29 -24,11 z"
       inkscape:connector-curvature="0" />
    <path
       id="path468"
       d="m 1788,3453 c 7,-3 16,-2 19,1 4,3 -2,6 -13,5 -11,0 -14,-3 -6,-6 z"
       inkscape:connector-curvature="0" />
    <path
       id="path470"
       d="m 2130,3345 c 0,-8 -7,-15 -15,-15 -18,0 -19,-2 -1,-45 11,-25 19,-33 31,-29 21,8 30,50 16,80 -12,27 -31,32 -31,9 z"
       inkscape:connector-curvature="0" />
    <path
       id="path472"
       d="m 1854,3154 c 3,-8 6,-22 6,-30 0,-8 5,-14 10,-14 17,0 11,47 -6,54 -12,5 -15,2 -10,-10 z"
       inkscape:connector-curvature="0" />
    <path
       id="path474"
       d="m 2550,3210 c 0,-5 7,-10 15,-10 8,0 15,5 15,10 0,6 -7,10 -15,10 -8,0 -15,-4 -15,-10 z"
       inkscape:connector-curvature="0" />
    <path
       id="path476"
       d="m 1880,2936 c 0,-9 5,-16 10,-16 6,0 10,4 10,9 0,6 -4,13 -10,16 -5,3 -10,-1 -10,-9 z"
       inkscape:connector-curvature="0" />
    <path
       id="path478"
       d="m 1797,2893 c -8,-10 -20,-30 -26,-45 -13,-34 11,-46 46,-23 19,13 23,23 21,47 -4,38 -19,45 -41,21 z"
       inkscape:connector-curvature="0" />
    <path
       id="path480"
       d="m 1552,2805 c 2,-14 8,-26 13,-26 6,0 11,12 13,26 2,18 -1,25 -13,25 -12,0 -15,-7 -13,-25 z"
       inkscape:connector-curvature="0" />
    <path
       id="path482"
       d="m 1292,2840 c 0,-19 2,-27 5,-17 2,9 2,25 0,35 -3,9 -5,1 -5,-18 z"
       inkscape:connector-curvature="0" />
    <path
       id="path484"
       d="m 2060,4170 c 0,-5 9,-10 20,-10 11,0 20,5 20,10 0,6 -9,10 -20,10 -11,0 -20,-4 -20,-10 z"
       inkscape:connector-curvature="0" />
    <path
       id="path486"
       d="m 3130,1286 c 0,-13 -67,-50 -142,-77 -21,-7 -38,-17 -38,-21 0,-4 -5,-8 -11,-8 -10,0 -82,-33 -245,-112 -34,-17 -68,-28 -75,-25 -8,2 -22,-2 -31,-10 -14,-13 -33,-13 -125,-4 -59,6 -153,16 -208,21 -55,6 -138,15 -185,20 -47,5 -146,14 -220,20 -74,6 -155,13 -180,16 -89,10 -217,23 -325,34 -60,6 -153,15 -205,20 -220,22 -240,23 -240,13 0,-6 39,-13 88,-17 48,-3 130,-10 182,-16 52,-6 140,-15 195,-21 55,-5 136,-14 180,-19 44,-4 127,-13 185,-19 58,-6 149,-15 203,-21 53,-5 139,-14 190,-19 146,-15 286,-30 370,-41 97,-12 64,-24 445,162 162,79 202,102 202,118 0,11 -2,20 -5,20 -3,0 -5,-6 -5,-14 z"
       inkscape:connector-curvature="0" />
    <path
       id="path488"
       d="m 507,824 c -11,-64 -8,-232 5,-240 7,-5 46,-7 88,-6 62,2 78,6 93,24 22,26 22,67 0,97 -13,19 -14,28 -5,42 18,29 14,64 -9,85 -15,14 -40,20 -94,22 l -73,4 z m 123,-58 c 0,-16 -7,-26 -22,-29 -29,-8 -38,-1 -38,29 0,20 5,24 30,24 25,0 30,-4 30,-24 z m -6,-82 c 25,-10 19,-43 -8,-50 -30,-7 -46,1 -46,25 0,30 19,38 54,25 z"
       inkscape:connector-curvature="0" />
    <path
       id="path490"
       d="m 1117,844 c -4,-4 -7,-65 -7,-136 V 580 h 30 30 v 64 c 0,46 4,65 14,69 23,9 35,-14 38,-73 3,-52 5,-55 31,-58 l 27,-3 v 78 c -1,99 -13,118 -69,110 l -40,-5 -3,42 c -2,32 -7,42 -23,44 -12,2 -24,0 -28,-4 z"
       inkscape:connector-curvature="0" />
    <path
       id="path492"
       d="m 1788,844 c -5,-4 -8,-65 -8,-135 0,-101 3,-128 14,-132 8,-3 45,-3 83,-1 52,4 72,10 86,26 22,26 22,76 0,100 -14,16 -15,23 -5,38 37,60 -1,103 -96,108 -37,2 -70,0 -74,-4 z m 112,-79 c 0,-21 -5,-25 -30,-25 -25,0 -30,4 -30,25 0,21 5,25 30,25 25,0 30,-4 30,-25 z m 6,-89 c 24,-18 10,-36 -32,-39 -25,-2 -29,2 -32,26 -3,23 0,27 20,27 13,0 33,-6 44,-14 z"
       inkscape:connector-curvature="0" />
    <path
       id="path494"
       d="m 2871,837 c -8,-10 -11,-53 -9,-133 l 3,-119 28,-3 28,-3 -3,133 c -3,112 -5,133 -19,136 -9,1 -21,-4 -28,-11 z"
       inkscape:connector-curvature="0" />
    <path
       id="path496"
       d="m 1560,817 c -34,-28 -52,-88 -30,-102 6,-3 10,-30 10,-59 0,-60 22,-90 62,-84 27,4 37,37 14,50 -21,12 -22,86 -1,94 8,4 15,14 15,24 0,10 -7,23 -15,30 -8,7 -15,23 -15,36 0,26 -16,30 -40,11 z"
       inkscape:connector-curvature="0" />
    <path
       id="path498"
       d="m 2090,773 c -59,-17 -88,-64 -76,-127 9,-49 39,-71 93,-69 47,2 73,16 73,40 0,12 -9,14 -49,8 -38,-5 -50,-3 -54,8 -8,22 1,27 58,27 28,0 54,2 57,6 7,7 -8,74 -19,85 -13,13 -65,27 -83,22 z m 38,-66 c 3,-12 -3,-17 -21,-17 -31,0 -40,10 -25,27 15,18 42,12 46,-10 z"
       inkscape:connector-curvature="0" />
    <path
       id="path500"
       d="m 750,674 c 0,-92 0,-94 24,-94 27,0 36,16 36,66 0,42 15,74 35,74 9,0 15,10 15,24 0,22 -4,23 -55,24 h -55 z"
       inkscape:connector-curvature="0" />
    <path
       id="path502"
       d="m 900,687 c 0,-55 4,-88 13,-95 6,-6 45,-10 85,-10 h 73 l -3,91 -3,92 -27,3 c -28,3 -28,3 -28,-56 0,-41 -5,-63 -15,-72 -24,-20 -34,-2 -37,65 -3,57 -4,60 -30,63 l -28,3 z"
       inkscape:connector-curvature="0" />
    <path
       id="path504"
       d="m 1335,750 c -28,-31 -6,-48 38,-32 43,15 47,15 47,-2 0,-8 -21,-21 -50,-31 -54,-18 -66,-37 -51,-79 10,-24 34,-34 66,-26 6,1 31,2 58,2 l 47,-1 v 78 c 0,96 -12,111 -87,111 -37,0 -54,-5 -68,-20 z m 93,-107 c -4,-22 -48,-31 -48,-10 0,19 10,27 32,27 13,0 18,-6 16,-17 z"
       inkscape:connector-curvature="0" />
    <path
       id="path506"
       d="m 2230,670 c 0,-55 2,-100 4,-100 3,0 16,4 30,10 23,9 26,15 26,63 0,55 12,79 36,70 10,-4 14,-24 14,-68 0,-67 8,-80 40,-70 18,6 20,15 20,81 0,42 -5,84 -10,95 -12,21 -50,25 -80,9 -13,-7 -21,-7 -25,0 -3,5 -17,10 -31,10 -24,0 -24,-1 -24,-100 z"
       inkscape:connector-curvature="0" />
    <path
       id="path508"
       d="m 2456,751 c -11,-12 -16,-37 -16,-74 0,-48 3,-58 27,-77 15,-11 33,-18 40,-15 7,3 20,8 28,11 17,7 21,-22 5,-46 -7,-11 -13,-12 -32,-3 -48,24 -68,26 -68,5 0,-52 109,-74 150,-30 18,19 20,35 20,133 v 112 l -69,1 c -54,0 -73,-4 -85,-17 z m 82,-40 c 22,-13 11,-65 -14,-69 -16,-2 -23,3 -26,22 -5,24 7,56 20,56 4,0 13,-4 20,-9 z"
       inkscape:connector-curvature="0" />
    <path
       id="path510"
       d="m 2665,750 c -28,-31 -6,-48 38,-32 44,16 57,15 57,-3 0,-8 -17,-19 -42,-26 -57,-15 -68,-25 -68,-65 0,-28 5,-36 28,-45 19,-8 36,-8 55,-1 18,7 38,7 52,2 13,-5 26,-6 29,-3 12,12 5,158 -8,176 -20,26 -117,24 -141,-3 z m 93,-107 c -4,-22 -48,-31 -48,-10 0,19 10,27 32,27 13,0 18,-6 16,-17 z"
       inkscape:connector-curvature="0" />
    <path
       id="path512"
       d="m 2970,686 c 0,-80 2,-87 25,-102 14,-9 30,-12 37,-8 7,4 33,8 58,9 h 45 v 90 90 l -27,3 c -27,3 -28,2 -28,-50 0,-57 -21,-101 -39,-83 -5,6 -11,37 -13,70 -3,57 -4,60 -30,63 l -28,3 z"
       inkscape:connector-curvature="0" />
    <path
       id="path514"
       d="m 3184,755 c -3,-6 -4,-47 -2,-91 3,-78 3,-79 31,-82 26,-3 27,-2 27,47 0,63 7,80 36,92 14,5 24,17 24,28 0,17 -7,19 -56,19 -34,0 -57,-5 -60,-13 z"
       inkscape:connector-curvature="0" />
    <path
       id="path516"
       d="m 3330,690 c 0,-68 3,-83 21,-101 15,-15 27,-19 42,-14 12,5 41,7 65,6 l 43,-1 -3,92 -3,93 -27,3 c -28,3 -28,3 -28,-61 0,-46 -4,-66 -14,-70 -24,-9 -36,15 -36,75 0,58 0,58 -30,58 h -30 z"
       inkscape:connector-curvature="0" />
    <path
       id="path518"
       d="m 377,413 c -3,-4 -6,-60 -6,-124 -1,-93 1,-119 14,-129 12,-10 18,-10 31,1 12,10 15,25 12,60 -9,94 17,82 38,-16 8,-33 14,-41 35,-43 26,-3 27,0 40,68 7,39 16,73 21,76 4,3 8,-28 8,-69 0,-40 2,-76 5,-79 3,-3 17,-3 31,0 l 25,4 -3,127 -3,126 h -45 -45 l -13,-63 c -16,-74 -28,-71 -45,9 -12,54 -12,54 -54,57 -23,2 -43,-1 -46,-5 z"
       inkscape:connector-curvature="0" />
    <path
       id="path520"
       d="m 880,291 c 0,-124 1,-131 20,-131 11,0 23,0 28,0 4,0 9,28 12,62 4,55 8,63 25,63 18,0 20,-8 23,-62 3,-62 3,-63 32,-63 h 30 v 78 c -1,48 -6,84 -14,95 -15,20 -71,23 -83,5 -5,-8 -10,4 -13,32 -4,40 -8,45 -32,48 l -28,3 z"
       inkscape:connector-curvature="0" />
    <path
       id="path522"
       d="m 2620,291 c 0,-122 1,-130 20,-136 31,-10 50,12 50,55 0,35 3,39 33,45 60,12 66,16 76,50 11,39 5,72 -17,98 -12,13 -31,17 -89,17 h -73 z m 115,49 c 0,-18 -6,-26 -22,-28 -20,-3 -23,1 -23,28 0,27 3,31 23,28 16,-2 22,-10 22,-28 z"
       inkscape:connector-curvature="0" />
    <path
       id="path524"
       d="m 3057,413 c -4,-3 -7,-62 -7,-130 V 160 h 30 30 v 130 c 0,130 0,130 -23,130 -13,0 -27,-3 -30,-7 z"
       inkscape:connector-curvature="0" />
    <path
       id="path526"
       d="m 3160,395 c 0,-23 4,-26 28,-23 19,2 27,9 27,23 0,14 -8,21 -27,23 -24,3 -28,0 -28,-23 z"
       inkscape:connector-curvature="0" />
    <path
       id="path528"
       d="m 3262,288 3,-133 h 25 c 20,0 26,6 30,30 7,40 32,43 46,7 11,-29 58,-50 69,-31 3,4 -6,32 -19,61 -24,53 -24,53 -5,84 25,41 24,44 -10,44 -20,0 -34,-8 -45,-25 -26,-39 -36,-30 -36,35 v 60 h -30 -31 z"
       inkscape:connector-curvature="0" />
    <path
       id="path530"
       d="m 686,335 c -38,-29 1,-58 45,-34 12,6 27,8 36,5 24,-9 1,-29 -50,-44 -34,-10 -47,-20 -51,-38 -13,-49 28,-83 82,-68 15,4 42,6 60,5 l 32,-3 v 80 c 0,64 -4,82 -18,95 -23,21 -109,22 -136,2 z m 92,-111 c -5,-25 -35,-41 -49,-27 -9,9 -9,16 1,28 17,21 52,20 48,-1 z"
       inkscape:connector-curvature="0" />
    <path
       id="path532"
       d="m 1106,331 c -10,-11 -15,-25 -11,-30 8,-14 52,-14 60,-1 10,15 45,12 45,-5 0,-8 -17,-19 -41,-25 -52,-14 -82,-44 -74,-73 11,-34 35,-49 70,-41 16,4 47,6 68,5 l 37,-2 v 73 c 0,99 -13,118 -84,118 -40,0 -57,-5 -70,-19 z m 94,-105 c 0,-18 -27,-39 -40,-31 -14,9 -13,32 3,38 23,10 37,7 37,-7 z"
       inkscape:connector-curvature="0" />
    <path
       id="path534"
       d="m 1307,343 c -4,-3 -7,-46 -7,-94 0,-84 1,-87 25,-91 33,-7 35,-3 35,53 0,60 7,79 31,79 17,0 19,-8 19,-65 v -65 h 30 c 28,0 30,3 31,38 5,109 -10,152 -51,152 -14,0 -31,-5 -38,-12 -9,-9 -15,-9 -24,0 -13,13 -41,16 -51,5 z"
       inkscape:connector-curvature="0" />
    <path
       id="path536"
       d="m 1530,330 c -12,-12 -18,-25 -15,-30 8,-13 52,-13 60,0 3,6 15,10 26,10 38,0 16,-32 -31,-46 -54,-16 -74,-42 -60,-79 10,-27 11,-27 110,-28 h 65 v 76 c -1,96 -16,117 -87,117 -35,0 -53,-5 -68,-20 z m 100,-97 c 0,-16 -16,-30 -37,-37 -19,-6 -23,-3 -23,12 0,11 6,23 13,25 19,8 47,8 47,0 z"
       inkscape:connector-curvature="0" />
    <path
       id="path538"
       d="m 1740,323 c -11,-15 -18,-33 -15,-41 3,-7 5,-29 5,-48 0,-49 31,-78 76,-69 26,4 34,2 34,-8 0,-23 -29,-42 -42,-29 -20,20 -68,15 -68,-6 0,-31 22,-42 81,-42 82,0 89,13 89,157 0,111 0,113 -23,113 -13,0 -28,-5 -34,-11 -8,-8 -13,-8 -17,0 -14,21 -64,12 -86,-16 z m 88,-35 c 17,-17 15,-53 -4,-69 -14,-11 -18,-10 -30,6 -17,23 -17,30 -4,56 12,22 21,24 38,7 z"
       inkscape:connector-curvature="0" />
    <path
       id="path540"
       d="m 1956,331 c -10,-11 -15,-25 -11,-30 8,-14 52,-14 60,-1 3,6 15,10 26,10 37,0 17,-33 -26,-45 -57,-14 -65,-22 -65,-60 0,-44 18,-53 100,-49 l 65,3 3,77 c 4,98 -8,114 -83,114 -39,0 -56,-5 -69,-19 z m 94,-105 c 0,-18 -27,-39 -40,-31 -14,9 -13,32 3,38 23,10 37,7 37,-7 z"
       inkscape:connector-curvature="0" />
    <path
       id="path542"
       d="m 2156,342 c -3,-3 -6,-45 -6,-93 0,-81 2,-87 22,-92 31,-9 38,-1 38,46 0,61 10,87 30,87 17,0 23,9 32,45 3,10 -106,17 -116,7 z"
       inkscape:connector-curvature="0" />
    <path
       id="path544"
       d="m 2316,331 c -10,-11 -15,-25 -11,-30 8,-14 42,-14 50,-1 12,19 45,11 45,-10 0,-14 -7,-20 -22,-20 -33,0 -88,-36 -88,-58 0,-9 6,-27 14,-38 13,-18 24,-20 78,-18 35,2 69,3 76,4 19,0 16,134 -4,165 -14,21 -24,25 -69,25 -39,0 -56,-5 -69,-19 z m 88,-100 c 3,-4 -1,-17 -9,-27 -10,-15 -16,-16 -26,-7 -6,6 -9,19 -6,27 7,17 32,22 41,7 z"
       inkscape:connector-curvature="0" />
    <path
       id="path546"
       d="m 2857,332 c -10,-10 -17,-24 -17,-30 0,-15 46,-16 55,-2 3,6 15,10 26,10 39,0 16,-32 -33,-47 -49,-14 -65,-36 -53,-73 10,-32 37,-40 109,-33 l 66,6 v 71 c 0,97 -14,116 -84,116 -39,0 -57,-5 -69,-18 z m 93,-100 c 0,-20 -28,-45 -44,-39 -14,5 -15,11 -6,27 10,19 50,29 50,12 z"
       inkscape:connector-curvature="0" />
    <path
       id="path548"
       d="m 3160,256 c 0,-97 5,-108 43,-98 16,4 17,15 15,96 l -3,91 -27,3 -28,3 z"
       inkscape:connector-curvature="0" />
    <path
       id="path550"
       d="m 3480,325 c -27,-29 -30,-103 -5,-141 21,-32 77,-41 121,-20 19,8 34,20 34,25 0,14 -40,21 -64,11 -27,-10 -51,2 -43,23 4,10 19,14 51,12 25,-1 50,2 56,5 18,11 1,78 -23,95 -35,24 -100,19 -127,-10 z m 88,-38 c 3,-12 -4,-17 -22,-17 -32,0 -42,16 -19,29 23,13 37,9 41,-12 z"
       inkscape:connector-curvature="0" />
  </g>
</svg>
