<?xml version="1.0" encoding="UTF-8" standalone="no"?>
<svg
   xmlns:dc="http://purl.org/dc/elements/1.1/"
   xmlns:cc="http://creativecommons.org/ns#"
   xmlns:rdf="http://www.w3.org/1999/02/22-rdf-syntax-ns#"
   xmlns:svg="http://www.w3.org/2000/svg"
   xmlns="http://www.w3.org/2000/svg"
   xmlns:sodipodi="http://sodipodi.sourceforge.net/DTD/sodipodi-0.dtd"
   xmlns:inkscape="http://www.inkscape.org/namespaces/inkscape"
   width="202pt"
   height="76pt"
   viewBox="0 0 202 75.999998"
   version="1.1"
   id="svg200"
   sodipodi:docname="tes.svg"
   inkscape:export-filename="/home/murali/nncfsw/webs/questdb/questdb.io/src/assets/img/pages/index/integrations/grafana2.svg.png"
   inkscape:export-xdpi="13.02733"
   inkscape:export-ydpi="13.02733"
   inkscape:version="0.92.5 (2060ec1f9f, 2020-04-08)">
  <metadata
     id="metadata204">
    <rdf:RDF>
      <cc:Work
         rdf:about="">
        <dc:format>image/svg+xml</dc:format>
        <dc:type
           rdf:resource="http://purl.org/dc/dcmitype/StillImage" />
        <dc:title></dc:title>
      </cc:Work>
    </rdf:RDF>
  </metadata>
  <sodipodi:namedview
     pagecolor="#ffffff"
     bordercolor="#666666"
     borderopacity="1"
     objecttolerance="10"
     gridtolerance="10"
     guidetolerance="10"
     inkscape:pageopacity="0"
     inkscape:pageshadow="2"
     inkscape:window-width="1848"
     inkscape:window-height="1016"
     id="namedview202"
     showgrid="false"
     inkscape:zoom="2.2400695"
     inkscape:cx="291.50881"
     inkscape:cy="50.730392"
     inkscape:window-x="72"
     inkscape:window-y="27"
     inkscape:window-maximized="1"
     inkscape:current-layer="svg200"
     width="100pt" />
  <defs
     id="defs133">
    <clipPath
       id="clip1">
      <path
         d="m 125,186 h 17 v 24.01953 h -17 z m 0,0"
         id="path127"
         inkscape:connector-curvature="0" />
    </clipPath>
    <clipPath
       id="clip2">
      <path
         d="m 0,155 h 558.12891 v 5 H 0 Z m 0,0"
         id="path130"
         inkscape:connector-curvature="0" />
    </clipPath>
  </defs>
  <g
     id="surface1"
     transform="matrix(0.33713127,0,0,0.34639154,6.6962176,1.2416634)">
    <path
       style="fill:#dc232b;fill-opacity:1;fill-rule:nonzero;stroke:none"
       d="m 533.71484,62.523438 c 1.98828,0.03125 3.51172,0.414062 4.65235,1.148437 1.17187,0.730469 2.29687,2.355469 3.35156,4.796875 1.07031,2.464844 0.63281,4.292969 -1.41797,5.398438 -2.01562,1.132812 -3.85937,0.945312 -5.48437,-0.375 -1.59375,-1.316407 -3.28516,-1.421875 -5.07813,-0.371094 -1.78516,1.027344 -3.47266,2.171875 -5.27734,3.183594 -1.71094,1.023437 -3.89063,2.480468 -6.39844,4.464843 -2.53516,2.015625 -5.19922,4.492188 -7.89063,7.460938 -2.67187,2.972656 -4.14453,4.746094 -4.42968,5.574219 -0.28516,0.785156 0.39843,0.691406 2.08593,-0.320313 1.65235,-1.039062 4.1875,-2.664062 7.60547,-4.855469 3.4375,-2.226562 7.78516,-4.5 12.98828,-7.203125 5.20313,-2.707031 8.48047,-3.921875 9.84766,-3.53125 1.37109,0.371094 2.54297,1.25 3.55078,2.488282 1.02735,1.230468 1.57813,2.34375 1.69922,3.28125 0.15234,1.011718 0.0117,1.8125 -0.44141,2.433593 -0.47265,0.65625 -1.0039,2.015625 -1.64062,4.152344 -0.625,2.085938 -0.52344,4.085938 0.16797,5.941406 0.70703,1.835938 1.66797,3.035157 2.74219,3.648438 1.10937,0.671876 2.58203,0.746096 4.48437,0.238286 1.91797,-0.503911 4.26953,-2.156255 7.06641,-4.996099 2.82031,-2.867187 2.6875,-2.265625 -0.3711,1.800782 -3.02343,4.050777 -5.41015,6.675777 -7.18359,7.835937 -1.79297,1.13281 -3.17188,1.72266 -4.15625,1.76953 -0.97656,0.0547 -2.30859,-0.16015 -3.88672,-0.66406 -1.58984,-0.51953 -3.125,-1.35938 -4.49219,-2.50391 -1.42187,-1.18359 -2.54687,-2.60156 -3.34765,-4.316404 -0.80469,-1.695312 -1.35938,-2.972656 -1.64844,-3.746093 -0.27344,-0.851563 -0.91406,-1.746094 -1.97266,-2.664063 -1.03906,-0.9375 -2.28125,-1.054687 -3.76953,-0.425781 -1.47656,0.648437 -4.03906,2.226562 -7.83984,4.742187 -3.70313,2.503907 -7.14063,4.582034 -10.32422,6.074224 -3.22266,1.48046 -6.15234,2.34375 -8.73438,2.83984 -3.375,0.61719 -5.21875,1.10547 -7.3164,-1.85547 -0.90625,-1.24609 -1.42188,-2.57812 -1.54688,-3.980469 -0.13281,-1.453125 0.0937,-2.855468 0.66016,-4.277343 0.57812,-1.402344 2.88672,-4.214844 6.83594,-8.574219 8.33203,-9.242188 24.09375,-24.863281 36.91015,-24.613281"
       id="path135"
       inkscape:connector-curvature="0" />
    <path
       style="fill:#dc232b;fill-opacity:1;fill-rule:nonzero;stroke:none"
       d="m 455.17187,31.738281 c 1.48438,-1.238281 3.51172,-1.441406 6.08594,-0.640625 2.62891,0.839844 3.03906,4.613282 1.38672,11.390625 -1.64062,6.65625 -3.46094,13.332032 -5.42187,19.953125 -1.96485,6.542969 -1.52735,9.773438 1.29687,9.703125 2.86328,-0.07422 5.53906,-0.863281 7.95313,-2.398437 2.46875,-1.585938 5.15625,-3.304688 8.15625,-5.195313 2.96484,-1.90625 5.80859,-3.601562 8.43359,-5.039062 2.65234,-1.492188 4.26953,-1.171875 4.82031,1.039062 0.55078,2.226563 0.41797,4.144532 -0.5,5.652344 -0.94922,1.574219 -4.68359,4.253906 -11.28906,7.890625 -6.59375,3.625 -9.72656,5.71875 -9.39844,6.660156 0.31641,0.933594 0.67578,1.855469 1.01953,2.839844 0.35547,0.921875 1.8125,3.054688 4.39453,6.304688 2.57032,3.25 5.99219,6.703125 10.17969,10.437502 4.25391,3.74609 14.61328,-5.308596 14.16797,-4.464846 -1.32422,2.449219 -3.85937,4.394536 -5.92969,6.765626 -2.66406,3.05469 -5.0625,6.29297 -8.83984,6.45312 -1.58203,0.0937 -4.03125,-1.21093 -7.27734,-3.85156 -3.25,-2.63672 -6.40625,-5.765624 -9.42969,-9.484374 -2.99219,-3.699218 -5.50391,-6.613281 -7.60156,-8.777343 -2.10938,-2.199219 -3.5586,-3.5 -4.38282,-4.058594 -0.83984,-0.539063 -2.32422,2.007812 -4.55078,7.597656 -2.21094,5.5625 -4.21094,9.671875 -5.92187,12.367185 -1.67969,2.66407 -3.53516,3.66016 -5.63282,2.94141 -2.01171,-0.70313 -3.33593,-1.35938 -3.85937,-1.85547 -0.62891,-0.54297 -0.68359,-1.46484 -0.30859,-2.72656 0.42187,-1.296877 1.67968,-3.656252 3.85156,-7.050784 2.1914,-3.46875 4.73828,-10.4375 7.61328,-20.976562 2.87891,-10.648438 4.30078,-14.4375 5.03516,-18.871094 0.73046,-4.421875 0.80078,-3.425781 -1.42969,-0.121094 -2.21485,3.328125 -6.72656,6.664063 -11.92969,12.152344 -5.12109,5.371094 -5.38672,1.550781 -1.375,-2.972656 4.10156,-4.648438 6.91406,-8.269531 8.58203,-10.671875 1.69922,-2.371094 3.77344,-6.144531 6.20703,-11.28125 2.44141,-5.152344 4.45313,-8.433594 5.89453,-9.710938"
       id="path137"
       inkscape:connector-curvature="0" />
    <path
       style="fill:#dc232b;fill-opacity:1;fill-rule:nonzero;stroke:none"
       d="m 400.80859,62.628906 c 1.64453,-0.160156 3.44532,0.04297 5.36328,0.511719 1.98047,0.5 3.51563,1.117188 4.71094,2.007813 1.15625,0.828125 2.23047,2.371093 3.29297,4.582031 1.08203,2.253906 0.59375,3.574219 -1.36719,4.039062 -2.02343,0.441407 -3.83593,-0.105468 -5.48437,-1.527343 -1.63281,-1.402344 -3.33594,-1.894532 -5.15625,-1.414063 -1.73438,0.410156 -3.48828,0.90625 -5.25391,1.347656 -1.6875,0.4375 -3.85156,1.253907 -6.38281,2.398438 -2.55859,1.15625 -5.15234,2.742187 -7.85156,4.6875 -2.66797,1.960937 -4.17969,3.214844 -4.5,3.800781 -0.29297,0.628906 0.4375,0.648438 2.08984,0.08984 1.69141,-0.554688 4.26172,-1.40625 7.67578,-2.59375 5.4961,-1.898438 23.41797,-7.839844 27.44531,-2.203125 2.9961,4.226562 -3.17578,9.144531 -1.27343,13.519531 5.3125,12.226564 22.28906,-4.136719 28.58203,-7.8125 2.85937,-1.65625 -1.83594,2.96875 -4.84766,5.503906 -8.44922,7.035157 -19.19922,15.750008 -29.59765,6.90625 -1.41797,-1.214843 -2.53907,-2.5625 -3.33594,-4.136718 -1.52735,-3.007813 -3.04297,-7.730469 -7.38281,-7.105469 -1.50782,0.234375 -4.04688,1.082031 -7.78516,2.507812 -3.71094,1.414063 -7.15625,2.484375 -10.41406,3.230469 -3.21485,0.746094 -6.11719,1.101563 -8.63672,1.15625 -2.58985,0.05469 -4.21875,-0.07031 -4.92969,-0.335937 -0.77734,-0.292969 -1.57812,-1.011719 -2.46484,-2.222657 -0.87891,-1.1875 -1.37891,-2.386718 -1.54688,-3.652343 -0.16015,-1.226563 0.0625,-2.4375 0.66797,-3.582032 0.59766,-1.160156 2.91797,-3.230468 6.84375,-6.320312 3.89844,-3.050781 7.67969,-5.476563 11.33594,-7.265625 3.66797,-1.769531 7.55469,-3.222656 11.60937,-4.300781 4.10547,-1.066407 7.00391,-1.683594 8.59375,-1.816407"
       id="path139"
       inkscape:connector-curvature="0" />
    <path
       style="fill:#dc232b;fill-opacity:1;fill-rule:nonzero;stroke:none"
       d="m 350.92187,36.777344 c 3.52344,-2.558594 9.59375,0.570312 10.1836,4.933594 0.19922,1.316406 0.45703,2.273437 -0.32031,3.296875 -0.79297,1.019531 -1.49219,2.429687 -2.19532,4.171875 -0.71875,1.785156 -1.64843,4.242187 -2.79687,7.4375 -1.15235,3.171875 -1.06641,5.148437 0.22265,5.804687 1.30469,0.648438 3.42969,1.464844 6.57032,2.460938 3.91406,1.226562 9.19531,2.359375 11.74218,3.089843 l 1.1211,2.601563 c -0.14453,-0.347656 -3.64063,-0.625 -6.125,-0.757813 -5.82422,-0.25 -10.83985,-1.785156 -16.91797,-1.402343 -1.21094,0.07031 -3.21484,2.707031 -6.02344,7.824218 -2.82812,5.128907 -4.62109,8.570313 -5.5,10.3125 -0.87109,1.738282 24.66797,-7.472656 25.03906,-6.382812 C 366.1875,81.03125 359.91406,82.875 352.75,85.875 c -7.19141,3.011719 -15.25781,7.183594 -18.47266,5.914063 -1.48437,-0.558594 -3.01172,-1.316407 -4.28515,-1.945313 -1.25391,-0.601562 -1.25391,-2.359375 0.0781,-5.257812 1.28906,-2.882813 3.08203,-6.230469 5.34375,-10.011719 2.30469,-3.824219 3.51172,-6.160156 3.71094,-7.160156 0.23828,-0.960938 -0.6875,-1.519532 -2.71875,-1.609375 -2.08203,-0.09766 -3.875,-0.292969 -5.47656,-0.550782 -1.58203,-0.265625 -2.3711,-1.171875 -2.35938,-2.6875 0.0352,-1.5625 1.30469,-2.574218 3.89453,-3.054687 2.56641,-0.515625 4.82422,-0.613281 6.77735,-0.25 4.8164,0.824219 7.28515,-8.296875 9.27343,-15.277344 0.89844,-3.195312 1.01172,-6.167969 2.40625,-7.207031"
       id="path141"
       inkscape:connector-curvature="0" />
    <path
       style="fill:#dc232b;fill-opacity:1;fill-rule:nonzero;stroke:none"
       d="m 318.14844,54.929688 c 1.07422,2.300781 0.29297,3.746093 -1.71485,4.101562 -2.03125,0.347656 -3.85156,-0.253906 -5.49218,-1.773437 -3.17188,-2.984375 -6.67969,-1.371094 -10.35157,-0.410157 -1.74218,0.453125 -3.89453,1.277344 -6.41015,2.492188 -2.5625,1.253906 -5.21875,2.933594 -7.86719,5.160156 -2.72266,2.273438 -4.17188,3.824219 -4.4375,4.527344 -0.29297,0.746094 0.39062,0.703125 2.07812,-0.0625 1.63282,-0.746094 4.20704,-1.8125 7.61719,-3.160156 3.44531,-1.332032 7.75781,-2.574219 12.95313,-3.601563 5.21875,-1.011719 8.35156,-0.214844 9.87109,-0.425781 3.28906,-0.453125 5.90234,2.039062 5.25391,6.023437 -0.125,0.828125 -0.0117,1.414063 -0.48047,1.828125 -0.46875,0.375 -0.96485,1.359375 -1.58985,2.894532 -0.64062,1.570312 -0.55468,3.207031 0.16407,4.820312 0.71484,1.652344 1.67578,2.824219 2.73828,3.585938 1.05078,0.757812 2.55859,1.214843 4.5,1.269531 1.89453,0.03516 4.27344,-0.683594 7.05078,-2.207031 2.79687,-1.511719 2.67187,-1.074219 -0.39063,1.3125 -3.07031,2.40625 -5.40625,3.878906 -7.22656,4.410156 -1.73828,0.496094 -3.11719,0.667969 -4.10156,0.480469 -1.03906,-0.175782 -2.29688,-0.613282 -3.87891,-1.304688 -6.44531,-2.867187 -6.41406,-6.265625 -8.63672,-12.207031 -0.8164,-2.242188 -4.15234,-2.496094 -6.60156,-2.078125 -1.52344,0.277344 -4.09765,1.21875 -7.8164,2.886719 -3.7461,1.667968 -7.17969,3.039062 -10.42579,4.1875 -3.22656,1.171875 -6.125,1.929687 -8.64062,2.3125 -3.37109,0.46875 -5.22656,0.90625 -7.33203,-1.945313 -0.91406,-1.234375 -1.45313,-2.519531 -1.59375,-3.898437 -0.14453,-1.445313 0.11328,-2.867188 0.70703,-4.269532 0.60156,-1.410156 2.80859,-4.171875 6.80859,-8.007812 3.89844,-3.746094 7.64844,-6.738281 11.32422,-8.847656 3.6211,-2.078125 7.53906,-3.507813 11.66797,-4.492188 8.67188,-2.148437 18.04688,-2.636719 22.25391,6.398438"
       id="path143"
       inkscape:connector-curvature="0" />
    <path
       style="fill:#dc232b;fill-opacity:1;fill-rule:nonzero;stroke:none"
       d="m 221.35156,40.085938 c 1.49219,-0.6875 3.40235,-0.601563 5.69141,0.25 2.28515,0.851562 2.80859,2.53125 1.47656,5.019531 -1.30078,2.519531 -3.42578,6.71875 -6.39844,12.542969 -3.0039,5.945312 -3.33984,7.515625 -0.9375,4.773437 2.38282,-2.722656 5.21875,-5.460937 8.60157,-8.316406 3.35156,-2.789063 5.79296,-4.546875 7.28515,-5.292969 1.48047,-0.746094 3.0586,-1.347656 4.81641,-1.6875 1.7539,-0.363281 3.67578,-0.246094 5.92578,0.367188 2.13672,0.574218 4.03125,2.253906 5.57422,4.949218 1.57031,2.707032 2.42187,7.023438 2.52344,13.03125 0.10937,5.90625 1.73828,8.863282 4.98437,8.835938 5.65625,-0.07031 12.49609,-3.4375 16.14453,-7.785156 1.52735,-1.796875 2.19922,-2.222657 1.97656,-1.359375 -0.21093,0.871093 -1.04296,2.105468 -2.45703,3.683593 -4.32031,4.785157 -14.35156,12.84375 -20.96875,12.914063 -3.39062,0 -5.83203,-1.125 -7.33984,-3.558594 -1.50781,-2.402344 -2.45703,-6.335937 -2.97266,-11.726562 -0.48437,-5.429688 -1.22656,-8.199219 -2.39843,-8.296875 -5.56641,-0.453125 -14.71094,8.441406 -17.90235,12.210937 -3.1875,3.746094 -5.78515,6.960938 -7.78515,9.554688 -2.0625,2.722656 -3.90235,4.4375 -5.48047,5.15625 -1.63672,0.710937 -2.97266,0.480468 -3.99219,-0.746094 -1.00781,-1.207031 -1.32813,-2.785156 -1.04297,-4.746094 0.3125,-1.980469 0.89063,-4.980469 1.80469,-9.058594 0.92187,-4.089843 2.25781,-8.449218 3.9414,-12.992187 1.70313,-4.546875 1.32422,-5.949219 -1.14453,-4.199219 -0.30859,0.210938 -0.64062,0.46875 -1.0039,0.734375 -0.0859,0.0625 -0.19922,0.160156 -0.26953,0.222656 -2.47657,1.972657 -2.88672,1.839844 -2.17188,0.65625 1.60547,-2.75 9.06641,-11.140625 10.28125,-12.792968 0.66797,-0.867188 1.77344,-1.628907 3.23828,-2.34375"
       id="path145"
       inkscape:connector-curvature="0" />
    <path
       style="fill:#dc232b;fill-opacity:1;fill-rule:nonzero;stroke:none"
       d="m 158.21875,61.910156 c 2.50391,-9.953125 4.98047,-14.941406 7.33203,-15.058593 2.42188,-0.08984 4.17188,0.667968 5.37109,2.328125 1.24219,1.738281 1.0586,3.976562 -0.3789,6.851562 -1.45703,2.910156 -1.58594,4.199219 -0.38281,3.859375 1.14062,-0.335937 2.67968,-1.230469 4.60546,-2.679687 1.89063,-1.472657 3.71485,-2.601563 5.44922,-3.511719 3.85938,-1.945313 5.94532,-2.34375 10.3125,-1.554688 3.01953,0.558594 5.86328,1.554688 8.53907,2.929688 2.25,1.117187 5.25781,2.785156 8.59765,0.148437 0.125,-0.08594 1.39063,-1.84375 1.53906,-1.878906 0.52735,-0.160156 -0.0117,1.425781 0.55079,1.222656 l 0.48046,-0.160156 c -2.94531,2.398438 -6.72265,7.007813 -10.94531,4.8125 -10.24609,-5.398437 -20.26172,2.707031 -28.36719,10.554688 -2.09765,2.050781 -4.05078,5.253906 -5.85156,9.515625 -1.82812,4.332031 -3.20703,7.902343 -4.16406,10.785156 -0.95703,2.886719 -1.82031,5.289062 -2.58594,7.207031 -0.72656,1.867188 -2.23437,3.08203 -4.54297,3.625 -2.29297,0.51953 -3.76953,-0.0547 -4.53515,-1.636719 -0.77735,-1.597656 -0.94141,-2.695312 -0.54297,-3.308593 0.3789,-0.585938 1.49609,-3.90625 3.23047,-9.996094 1.71484,-6.074219 3.78125,-14.140625 6.28906,-24.054688"
       id="path147"
       inkscape:connector-curvature="0" />
    <path
       style="fill:#dc232b;fill-opacity:1;fill-rule:nonzero;stroke:none"
       d="m 124.98047,53.273438 c 1.625,-0.730469 3.39062,-1.09375 5.35937,-1.128907 1.97266,-0.01172 3.50391,0.308594 4.66407,1.011719 1.13671,0.703125 2.28906,2.304688 3.33984,4.742188 1.08203,2.507812 0.60547,4.320312 -1.43359,5.5625 -2.00391,1.277343 -3.84766,1.261718 -5.49219,0 -1.58203,-1.257813 -3.27344,-1.269532 -5.08594,-0.04297 -1.74219,1.160156 -3.48437,2.414062 -5.25,3.664062 -1.73047,1.253907 -3.89062,3.117188 -6.39844,5.558594 -2.53906,2.460938 -5.19531,5.582031 -7.8789,9.179688 -2.69531,3.644531 -4.17969,5.917968 -4.4375,6.808593 -0.28906,0.949219 0.36719,0.726563 2.07031,-0.71875 1.65234,-1.378906 4.19531,-3.558593 7.60938,-6.457031 3.43359,-2.867187 7.77734,-5.960937 12.97656,-9.277344 2.6289,-1.640625 10.54687,-7.054687 13.86718,-3.078125 1.02735,1.21875 1.1211,3.195313 1.2461,4.15625 0.14062,1 0.0312,1.835938 -0.41797,2.492188 -0.46875,0.703125 -1.02734,2.078125 -1.65625,4.261719 -0.63281,2.210937 -0.50781,4.253906 0.17187,6.042968 0.6875,1.820313 1.64844,2.96875 2.73438,3.515625 1.10156,0.507813 2.58203,0.507813 4.53906,-0.175781 1.86719,-0.613281 4.19922,-2.460937 7.01172,-5.449219 2.84375,-3.042968 2.66016,-2.382812 -0.37891,1.785157 -3.04296,4.230468 -5.41406,7.027343 -7.1875,8.34375 -3.98437,2.929687 -8.28515,3.078125 -12.52734,0.05078 -2.52734,-1.808594 -4.46484,-4.757813 -4.98828,-7.75 -0.59766,-3.46875 -3.19922,-4.519531 -5.74219,-2.546875 -1.36328,1.066406 -4.04687,2.929687 -7.82812,6.328125 -3.71485,3.332031 -7.17969,6.144531 -10.34766,8.410156 -3.23828,2.304692 -6.164061,3.968752 -8.703124,5.085942 -3.097656,1.3125 -5.121093,2.67187 -7.34375,-0.41016 -0.914062,-1.25 -1.390625,-2.63672 -1.550781,-4.250001 -0.128906,-1.597656 0.101563,-3.25 0.671875,-5 0.578125,-1.773437 2.878906,-5.421875 6.835938,-11.085937 3.914062,-5.574219 7.695312,-10.289063 11.335942,-14.085938 3.67187,-3.828125 7.51562,-7.140625 11.60937,-10.039062 4.11328,-2.890625 6.95703,-4.769531 8.60547,-5.503906"
       id="path149"
       inkscape:connector-curvature="0" />
    <path
       style="fill:#dc232b;fill-opacity:1;fill-rule:nonzero;stroke:none"
       d="M 51.105469,0.855469 C 52.246094,-0.0507813 53.554688,-0.230469 55,0.273438 c 3.097656,1.09375 4.648438,2.664062 4.425781,7.199218 -0.05469,1.316407 -0.320312,5.019532 -3.449218,11.992188 -3.117188,6.917969 -6.355469,14.417969 -9.695313,22.628906 -3.320312,8.195313 -5.9375,14.886719 -7.898437,20.097656 C 36.453125,67.375 35.875,70.476563 36.644531,71.519531 37.417969,72.523438 40.152344,71 44.917969,66.976563 c 4.78125,-4.054688 9.050781,-7.757813 12.9375,-11.300782 3.828125,-3.496093 9.121094,-8.636718 15.875,-15.589843 6.714844,-6.90625 11.179687,-11.507813 13.457031,-13.464844 2.328125,-2.011719 4.164063,-3.222656 5.484375,-3.707031 1.257813,-0.480469 2.859375,-0.519532 4.644531,-0.01172 1.777344,0.453125 3.050784,1.304687 3.789064,2.441406 0.73828,1.15625 0.73828,2.40625 0,3.863281 -0.73828,1.410157 -1.796876,3.078125 -3.183595,4.933594 -1.390625,1.890625 -3.449219,3.59375 -6.011719,5.15625 C 78.769531,47.375 68.183594,62.363281 56.042969,72.335938 43.167969,82.875 69.390625,92.578125 77.378906,93.09375 c 1.707032,0.113281 3.292969,0.417969 4.65625,0.816406 1.429688,0.425782 2.542969,0.972657 3.304688,1.757813 0.722656,0.761719 0.53125,1.667969 -0.601563,2.765625 -1.171875,1.113281 -2.460937,1.859376 -4.066406,2.222656 -8.464844,1.90625 -15.128906,0.98438 -23.316406,-1.855469 -4.699219,-1.652343 -8.128906,-5.035156 -12.601563,-6.824218 -1.320312,-0.535157 -3.75,-1.824219 -7.164062,-4.035157 -3.488281,-2.269531 -5.765625,-3.199218 -6.917969,-2.589843 -1.097656,0.550781 -2.488281,3.921875 -4.101562,10.011718 -1.179688,4.5625 -4.902344,15.457029 -8.730469,25.218749 -3.367188,8.59375 -6.703125,16.32031 -10.375,18.06641 C 2.957031,140.72656 -0.75,136.39453 0.421875,132.73047 4.886719,118.69531 12.242188,99.324219 17.367188,85.554688 L 43.390625,15.535156 C 43.945313,14 44.324219,12.082031 44.972656,9.988281 45.628906,7.898438 46.546875,6.019531 47.648438,4.5 48.777344,2.9375 49.957031,1.75 51.105469,0.855469"
       id="path151"
       inkscape:connector-curvature="0" />
    <path
       style="fill:#211e1e;fill-opacity:1;fill-rule:nonzero;stroke:none"
       d="m 154.89844,135.50391 c 0,5.07812 2.75781,8.51562 7.8789,8.51562 6.92969,0 11.07813,-6.46094 11.07813,-13.04297 0,-5.05078 -2.75391,-8.47656 -7.88672,-8.47656 -6.91797,0 -11.07031,6.42578 -11.07031,13.00391 z m 2.07422,-0.16797 c 0,-5.1211 3.38671,-11.06641 8.94921,-11.06641 3.95704,0 5.87891,3.01563 5.87891,6.89453 0,5.125 -3.37891,11.05469 -8.95312,11.05469 -3.97657,0 -5.875,-3.00391 -5.875,-6.88281 z m 23.09375,8.3125 h 1.96093 l 1.4961,-7.21094 c 0.72656,-3.48828 2.47265,-6.75391 5.75,-6.75391 1.92187,0 2.91406,1.16016 2.91406,2.94532 0,1.01171 -0.0898,1.65234 -0.32422,2.64843 l -1.72266,8.3711 h 1.96875 l 1.70704,-8.00782 c 0.20703,-0.96093 0.45312,-2.10546 0.45312,-3.13281 0,-2.8789 -2.05078,-4.42969 -4.78906,-4.42969 -1.86328,0 -3.79297,1.05469 -4.82031,2.65235 h -0.0625 c 0.15625,-0.51563 0.23828,-1.32031 0.33984,-2.28906 h -1.88672 c -0.0703,0.77734 -0.19141,1.41015 -0.36328,2.41406 z m 34.72265,-7.06641 c 0.0859,-0.94141 0.20703,-1.90234 0.20703,-2.82422 0,-3.45312 -1.79297,-5.67969 -5.34765,-5.67969 -4.91797,0 -7.87891,4.64063 -7.87891,9.73438 0,4.07812 2.69922,6.20703 6.24219,6.20703 2.48437,0 3.65625,-0.48828 4.53515,-0.82422 l 0.14844,-1.8125 c -1.19922,0.50781 -2.57031,1.02344 -4.44922,1.02344 -2.66015,0 -4.60937,-1.67969 -4.60937,-4.59375 0,-0.41406 0.0312,-0.83203 0.0898,-1.23047 z m -10.73437,-1.625 c 0.51953,-2.74219 2.65625,-5.27344 5.59375,-5.27344 2.40625,0 3.46093,1.66016 3.46093,4.12891 0,0.37109 -0.0391,0.74609 -0.0742,1.14453 z m 24.10156,8.22656 c 1.45703,0.61328 2.83203,0.83594 4.42187,0.83594 2.94922,0 6.10547,-1.33203 6.10547,-4.76953 0,-4.03906 -6.08984,-4.36719 -6.08984,-6.95703 0,-2.1211 2.08984,-2.60938 3.58203,-2.60938 1.13672,0 2.38672,0.34375 3.38281,0.91407 l 0.625,-1.75782 c -1.2539,-0.51562 -2.5625,-0.76172 -3.90625,-0.76172 -2.46484,0 -5.64843,1.24219 -5.64843,4.24219 0,3.87891 6,3.73438 6,7.04688 0,2.36328 -2.48829,3.03906 -4.29688,3.03906 -1.27344,0 -2.53516,-0.4375 -3.60547,-1.12891 z m 22.01562,-14.74218 h -2.98046 l -0.40235,1.61328 h 3.01953 l -1.44531,6.74609 c -0.15625,0.64844 -0.6875,3.0625 -0.6875,4.36719 0,1.66797 1.1875,2.85156 3.3125,2.85156 0.77734,0 1.34766,-0.16016 1.91406,-0.4375 l 0.17578,-1.58594 c -0.53515,0.27735 -1.05468,0.41016 -1.61328,0.41016 -1.09375,0 -1.73828,-0.65234 -1.73828,-1.85938 0,-0.97656 0.25391,-1.97656 0.44531,-2.98828 l 1.6211,-7.5039 h 3.90625 l 0.38672,-1.61328 h -3.95703 l 0.92187,-4.14063 -2.14453,0.75781 z m 22.51954,7.49218 c 0.25781,-1.18359 0.3789,-2.29297 0.3789,-2.91015 0,-3.14453 -1.71484,-4.94532 -5.01172,-4.94532 -1.79297,0 -3.52734,0.58594 -4.58203,1.03907 l -0.21094,1.89843 c 1.01954,-0.50781 2.73047,-1.33203 4.5,-1.33203 2.08204,0 3.23829,1.23438 3.23829,3.28125 0,0.64453 -0.0391,1.08594 -0.082,1.53907 -0.59375,-0.0742 -1.28906,-0.11719 -2.03906,-0.11719 -3.73828,0 -8.74609,0.90625 -8.74609,5.35547 0,2.51953 1.99609,4.27734 4.34765,4.27734 2.23829,0 3.89844,-0.70312 5.19532,-2.59375 h 0.0547 c -0.15234,0.63281 -0.20703,1.42188 -0.30468,2.22266 h 1.88281 c 0.0547,-1.02344 0.27344,-2.44141 0.55859,-3.625 z m -10.50391,3.78125 c 0,-3.32031 4.11719,-3.71875 6.64453,-3.71875 0.63281,0 1.22656,0.0586 1.85938,0.0586 -0.42579,3.19531 -2.02735,6.35156 -5.54688,6.35156 -1.51953,0 -2.95703,-0.96094 -2.95703,-2.69141 z m 22.41406,-11.27343 h -2.99219 l -0.42187,1.61328 h 3.05078 l -1.46484,6.74609 c -0.16016,0.64844 -0.69922,3.0625 -0.69922,4.36719 0,1.66797 1.19531,2.85156 3.32812,2.85156 0.76953,0 1.33985,-0.16016 1.89844,-0.4375 l 0.17969,-1.58594 c -0.52735,0.27735 -1.04297,0.41016 -1.60156,0.41016 -1.09766,0 -1.73047,-0.65234 -1.73047,-1.85938 0,-0.97656 0.23828,-1.97656 0.45312,-2.98828 l 1.59766,-7.5039 h 3.91797 l 0.36328,-1.61328 h -3.94922 l 0.9375,-4.14063 -2.16406,0.75781 z m 23.69922,8.14062 c 0.082,-0.94141 0.19141,-1.90234 0.19141,-2.82422 0,-3.45312 -1.79688,-5.67969 -5.3711,-5.67969 -4.89453,0 -7.88281,4.64063 -7.88281,9.73438 0,4.07812 2.72266,6.20703 6.28516,6.20703 2.46875,0 3.63672,-0.48828 4.51562,-0.82422 l 0.16016,-1.8125 c -1.19922,0.50781 -2.56641,1.02344 -4.42969,1.02344 -2.69922,0 -4.61719,-1.67969 -4.61719,-4.59375 0,-0.41406 0.0117,-0.83203 0.0625,-1.23047 z m -10.75781,-1.625 c 0.51562,-2.74219 2.65625,-5.27344 5.57812,-5.27344 2.44922,0 3.48438,1.66016 3.48438,4.12891 0,0.37109 -0.0586,0.74609 -0.0899,1.14453 z m 17.66797,8.69141 h 2.44922 l 0.51171,-2.4961 h -2.4414 z m 21.04687,0 h 1.91406 l 3.9336,-18.56641 h 0.0625 l 3.90625,18.56641 h 1.6875 l 11.875,-18.56641 h 0.0625 l -4.03906,18.56641 h 2.01562 l 4.4375,-20.79297 h -3.20312 l -11.5586,18.29687 -3.80859,-18.29687 h -2.88281 z m 43.1836,-7.71485 c 0.27343,-1.18359 0.39062,-2.29297 0.39062,-2.91015 0,-3.14453 -1.74609,-4.94532 -5.00391,-4.94532 -1.79296,0 -3.51562,0.58594 -4.60156,1.03907 l -0.21094,1.89843 c 1.01954,-0.50781 2.75391,-1.33203 4.51172,-1.33203 2.08203,0 3.25782,1.23438 3.25782,3.28125 0,0.64453 -0.0391,1.08594 -0.0899,1.53907 -0.60547,-0.0742 -1.29687,-0.11719 -2.05469,-0.11719 -3.73437,0 -8.75,0.90625 -8.75,5.35547 0,2.51953 2.00391,4.27734 4.35938,4.27734 2.23828,0 3.91406,-0.70312 5.19531,-2.59375 h 0.0508 c -0.15234,0.63281 -0.19922,1.42188 -0.30859,2.22266 h 1.88672 c 0.0547,-1.02344 0.27344,-2.44141 0.55859,-3.625 z m -10.49219,3.78125 c 0,-3.32031 4.11328,-3.71875 6.65625,-3.71875 0.62109,0 1.22656,0.0586 1.85547,0.0586 -0.4336,3.19531 -2.03907,6.35156 -5.55469,6.35156 -1.51953,0 -2.95703,-0.96094 -2.95703,-2.69141 z m 18.01953,3.9336 h 1.98047 l 1.49219,-7.21094 c 0.6914,-3.48828 2.47656,-6.75391 5.74218,-6.75391 1.90625,0 2.92969,1.16016 2.92969,2.94532 0,1.01171 -0.10937,1.65234 -0.34375,2.64843 l -1.72266,8.3711 h 1.97657 l 1.70312,-8.00782 c 0.19922,-0.96093 0.4375,-2.10546 0.4375,-3.13281 0,-2.8789 -2.03125,-4.42969 -4.75781,-4.42969 -1.88281,0 -3.78125,1.05469 -4.84766,2.65235 h -0.0547 c 0.15234,-0.51563 0.25781,-1.32031 0.34765,-2.28906 h -1.90625 c -0.0469,0.77734 -0.16797,1.41015 -0.34765,2.41406 z m 35.20703,-15.20703 h -2.03125 l -7.13281,13.10156 h -0.0586 l -1.55078,-13.10156 h -1.95312 l 2.13672,15.23828 -1.27735,2.41797 c -0.57812,1.21484 -1.57812,2.38671 -2.89453,2.38671 -0.46094,0 -0.89453,-0.0898 -1.22656,-0.41015 l -0.44141,1.59765 c 0.57422,0.34766 1.16016,0.41016 1.82032,0.41016 2.05078,0 3.15625,-1.12891 4.08203,-2.84766 z m 15.16016,15.20703 h 2.23828 l 7.12109,-13.14063 h 0.0586 l 1.55468,13.14063 h 2.29688 l 7.88672,-15.20703 h -2.09766 l -6.59375,13.14453 h -0.0703 l -1.44922,-13.14453 h -2.25391 l -7.14843,13.14453 h -0.0508 l -1.13281,-13.14453 h -1.92969 z m 25.62109,-6.25 c 0,3.76953 2.33984,6.62109 6.07813,6.62109 5.25781,0 8.44531,-4.34375 8.44531,-9.39453 0,-3.92969 -2.17578,-6.54688 -6.04688,-6.54688 -5.1914,0 -8.47656,4.21485 -8.47656,9.32032 z m 2.06641,0.28125 c 0,-3.86719 1.95703,-7.9961 6.16406,-7.9961 2.95312,0 4.24219,2.10157 4.24219,4.95313 0,3.59765 -2.20313,7.76953 -6.14453,7.76953 -2.65235,0 -4.26172,-2.08984 -4.26172,-4.72656 z m 18.99609,5.96875 H 486 l 1.53906,-7.49219 c 0.59766,-2.71875 1.80078,-6.10156 4.86328,-6.10156 0.53907,0 1.10938,0.0547 1.61719,0.25 l 0.43359,-1.9961 c -0.49218,-0.0977 -1.0039,-0.23047 -1.61718,-0.23047 -1.96094,0 -3.29297,1.17188 -4.23438,2.65235 h -0.0703 c 0.14844,-0.51563 0.25,-1.32031 0.32031,-2.28906 h -1.86719 c -0.0859,0.96875 -0.23046,1.86328 -0.42187,2.72265 z m 14.69141,0 h 1.97265 l 4.77344,-22.34766 h -1.94531 z m 28.125,-22.34766 h -1.98438 l -2.09375,9.95313 h -0.043 c -0.57031,-2.07813 -2.44922,-3.17579 -4.65234,-3.17579 -4.82813,0 -7.59766,5.19922 -7.59766,9.44141 0,3.41016 1.48438,6.5 5.14844,6.5 2.55078,0 4.07813,-1.14453 5.18359,-2.78516 h 0.0547 c -0.19531,0.60157 -0.37109,1.60157 -0.46484,2.41407 h 1.9375 c 0.0625,-0.71094 0.23047,-1.75782 0.50781,-2.96875 z M 512.51562,137.875 c 0,-3.51563 1.76954,-8.19141 5.69141,-8.19141 2.625,0 3.85938,2.15625 3.85938,4.83594 0,3.38281 -2.42188,7.88672 -5.82813,7.88672 -2.62891,0 -3.72266,-2.01953 -3.72266,-4.53125 z m 17.70704,5.30859 c 1.47656,0.61328 2.84375,0.83594 4.42187,0.83594 2.96484,0 6.11719,-1.33203 6.11719,-4.76953 0,-4.03906 -6.08985,-4.36719 -6.08985,-6.95703 0,-2.1211 2.10547,-2.60938 3.58594,-2.60938 1.13672,0 2.39844,0.34375 3.3711,0.91407 l 0.625,-1.75782 c -1.26172,-0.51562 -2.53125,-0.76172 -3.91407,-0.76172 -2.45312,0 -5.62109,1.24219 -5.62109,4.24219 0,3.87891 5.97656,3.73438 5.97656,7.04688 0,2.36328 -2.45312,3.03906 -4.26562,3.03906 -1.30078,0 -2.54688,-0.4375 -3.6211,-1.12891 z m 18.26171,0.46485 h 2.41797 l 0.51953,-2.4961 h -2.4375 l -0.5,2.4961"
       id="path153"
       inkscape:connector-curvature="0" />
    <path
       style="fill:#211e1e;fill-opacity:1;fill-rule:nonzero;stroke:none"
       d="m 82.035156,203.56641 3.992188,-23.32032 h 5.117187 c 1.800782,0 3.027344,0.0781 3.664063,0.21094 1.070312,0.27734 2.015625,0.80078 2.820312,1.57422 0.796875,0.79687 1.445313,1.85156 1.910157,3.16016 0.460937,1.27734 0.707027,2.86328 0.707027,4.71484 0,1.91797 -0.24609,3.70703 -0.722652,5.35937 -0.464844,1.625 -1.144532,3.0625 -2.007813,4.27735 -0.855469,1.22656 -1.761719,2.12109 -2.6875,2.67969 -0.933594,0.55468 -1.882812,0.91796 -2.890625,1.13671 -0.667969,0.12891 -1.703125,0.20704 -3.148437,0.20704 z m 4.578125,-3.75782 h 1.996094 c 1.453125,0 2.484375,-0.10547 3.0625,-0.29297 0.757813,-0.26562 1.484375,-0.78125 2.152344,-1.58593 0.667969,-0.78516 1.257812,-1.875 1.726562,-3.27735 0.5,-1.41797 0.742188,-3.02734 0.742188,-4.8789 0,-1.51953 -0.199219,-2.71875 -0.59375,-3.61328 -0.40625,-0.86329 -0.960938,-1.44922 -1.632813,-1.75782 -0.480468,-0.19922 -1.332031,-0.32031 -2.523437,-0.32031 H 89.3125 l -2.699219,15.72656"
       id="path155"
       inkscape:connector-curvature="0" />
    <path
       style="fill:#211e1e;fill-opacity:1;fill-rule:nonzero;stroke:none"
       d="m 119.89844,196.52734 h -9.37891 v 0.45313 c 0,1.09765 0.2461,2.03125 0.77735,2.70703 0.54296,0.68359 1.17968,1.01172 1.91406,1.01172 1.22656,0 2.1914,-0.79297 2.89844,-2.35547 l 3.37109,0.71484 c -0.65625,1.62891 -1.53516,2.85547 -2.62109,3.67188 -1.09766,0.82422 -2.32032,1.21484 -3.6836,1.21484 -1.79297,0 -3.30469,-0.71484 -4.5039,-2.09375 -1.1836,-1.42969 -1.78516,-3.32031 -1.78516,-5.73437 0,-2.58203 0.6875,-4.87891 2.04297,-6.85157 1.34375,-1.98046 3.25781,-2.98437 5.6914,-2.98437 1.64454,0 2.97266,0.625 3.9961,1.88281 1.02734,1.23438 1.55078,3.03516 1.55078,5.39453 0,1.10938 -0.0937,2.08985 -0.26953,2.96875 z m -3.16406,-2.79687 0.0195,-0.45313 c 0,-1.26172 -0.25,-2.21093 -0.70703,-2.8125 -0.48047,-0.625 -1.09766,-0.91797 -1.83594,-0.91797 -0.76563,0 -1.44141,0.33204 -2.07031,1.03907 -0.6211,0.71093 -1.03125,1.75781 -1.23829,3.14453 h 5.83204"
       id="path157"
       inkscape:connector-curvature="0" />
    <g
       clip-path="url(#clip1)"
       id="g161"
       style="clip-rule:nonzero">
      <path
         style="fill:#211e1e;fill-opacity:1;fill-rule:nonzero;stroke:none"
         d="m 129.22266,186.67187 h 3.61718 l -0.30468,1.74219 c 0.77734,-0.80078 1.47265,-1.35937 2.10546,-1.66406 0.64063,-0.30859 1.32422,-0.46875 2.01954,-0.46875 1.40234,0 2.52734,0.625 3.40625,1.82812 0.86718,1.21094 1.30078,3.01172 1.30078,5.44922 0,3.09375 -0.78907,5.69141 -2.30469,7.78516 -1.27344,1.74219 -2.76563,2.60156 -4.46875,2.60156 -1.8125,0 -3.16016,-0.88672 -4.07031,-2.70703 l -1.54688,8.78125 h -3.75781 z m 2.30468,9.67579 c 0,1.33203 0.25,2.34375 0.76953,3.08984 0.50782,0.71875 1.10938,1.08203 1.76563,1.08203 0.54297,0 1.07031,-0.23047 1.60156,-0.69922 0.51953,-0.46875 0.98047,-1.30469 1.41016,-2.54687 0.41797,-1.26172 0.6289,-2.53125 0.6289,-3.82032 0,-1.26562 -0.23437,-2.2539 -0.71093,-2.90234 -0.4961,-0.68359 -1.09766,-1.00391 -1.8086,-1.00391 -0.5625,0 -1.10156,0.21485 -1.62109,0.6836 -0.52344,0.45312 -1,1.26172 -1.41406,2.44922 -0.41797,1.19922 -0.6211,2.41015 -0.6211,3.66797"
         id="path159"
         inkscape:connector-curvature="0" />
    </g>
    <path
       style="fill:#211e1e;fill-opacity:1;fill-rule:nonzero;stroke:none"
       d="m 153.29687,191.44922 -3.66015,-0.41016 c 0.43359,-1.57031 1.18359,-2.73047 2.26172,-3.54687 1.07812,-0.80078 2.45703,-1.21094 4.10547,-1.21094 1.67578,0 2.98828,0.42578 3.89843,1.25391 0.91407,0.83984 1.34766,1.93359 1.34766,3.32812 0,0.49609 -0.043,0.99219 -0.12109,1.55078 -0.0937,0.5586 -0.40625,2.05078 -0.95704,4.47656 -0.45703,2.02344 -0.6875,3.45313 -0.6875,4.25 0,0.7461 0.125,1.54688 0.3711,2.42579 h -3.72656 c -0.16016,-0.61329 -0.25,-1.27735 -0.27344,-1.94532 -0.54297,0.77344 -1.14063,1.33203 -1.83594,1.73828 -0.69922,0.38282 -1.36328,0.58594 -2.05859,0.58594 -1.08203,0 -1.96875,-0.4414 -2.71875,-1.33594 -0.72266,-0.90625 -1.09375,-2.07031 -1.09375,-3.55078 0,-1.69922 0.4375,-3.04687 1.28515,-3.96875 0.8711,-0.90625 2.30078,-1.46484 4.34375,-1.63672 1.76953,-0.21875 2.94922,-0.42578 3.5586,-0.67968 0.20703,-0.65235 0.29687,-1.14844 0.29687,-1.53516 0,-0.50781 -0.16406,-0.91797 -0.51172,-1.22656 -0.34765,-0.33203 -0.82422,-0.46485 -1.42187,-0.46485 -1.30469,0 -2.11328,0.64063 -2.40235,1.90235 z m 3.42969,4.25781 c -0.21094,0.0742 -0.51953,0.14453 -0.88672,0.19922 -1.6914,0.26562 -2.82812,0.60156 -3.35547,1.01172 -0.53515,0.45312 -0.8164,1.01172 -0.8164,1.71875 0,0.55469 0.16406,0.98828 0.46484,1.35937 0.30078,0.34766 0.69531,0.52344 1.16406,0.52344 0.50391,0 0.96875,-0.14844 1.41797,-0.45312 0.45703,-0.28125 0.80469,-0.67188 1.07813,-1.1875 0.28515,-0.53516 0.54297,-1.40235 0.79297,-2.57422 l 0.14062,-0.59766"
       id="path163"
       inkscape:connector-curvature="0" />
    <path
       style="fill:#211e1e;fill-opacity:1;fill-rule:nonzero;stroke:none"
       d="m 170.67969,186.67187 h 3.55078 l -0.57813,3.27735 c 1.33594,-2.42578 2.7461,-3.66797 4.28516,-3.66797 0.54297,0 1.11328,0.16016 1.75,0.46875 l -1.42969,3.77344 c -0.33984,-0.16407 -0.71484,-0.23047 -1.08203,-0.23047 -0.58594,0 -1.14062,0.21484 -1.66016,0.59765 -0.78125,0.60157 -1.3789,1.39063 -1.80078,2.34375 -0.41406,1.00391 -0.84375,2.67188 -1.23437,5.04297 l -0.94531,5.28907 h -3.76172 l 2.90625,-16.89454"
       id="path165"
       inkscape:connector-curvature="0" />
    <path
       style="fill:#211e1e;fill-opacity:1;fill-rule:nonzero;stroke:none"
       d="m 184.44531,190.06641 0.61719,-3.39454 h 1.92578 l 0.47266,-2.70703 4.375,-3.21484 -1.05469,5.92187 h 2.35937 l -0.58203,3.39454 h -2.39843 l -1.31641,7.03906 c -0.22656,1.27734 -0.33203,2.02344 -0.33203,2.22656 0,0.37109 0.0977,0.66406 0.29687,0.83984 0.20703,0.1875 0.55078,0.26172 1.03907,0.26172 0.15625,0 0.57031,-0.0273 1.28125,-0.0898 l -0.61329,3.37109 c -0.66796,0.17188 -1.33593,0.23047 -2.0039,0.23047 -1.3086,0 -2.27344,-0.29297 -2.9375,-0.88672 -0.62891,-0.59375 -0.96485,-1.46484 -0.96485,-2.625 0,-0.52734 0.16016,-1.72656 0.51172,-3.57031 l 1.23828,-6.79687 h -1.91406"
       id="path167"
       inkscape:connector-curvature="0" />
    <path
       style="fill:#211e1e;fill-opacity:1;fill-rule:nonzero;stroke:none"
       d="m 200.38281,186.67187 h 3.57031 l -0.36328,2.05079 c 1.40235,-1.625 2.86328,-2.44141 4.40625,-2.44141 2.03516,0 3.22266,1.00391 3.54297,2.98437 0.50781,-0.86328 1.21485,-1.58203 2.11719,-2.14062 0.91797,-0.55078 1.83203,-0.84375 2.77734,-0.84375 1.08594,0 1.95703,0.375 2.59766,1.05469 0.64453,0.68359 0.95703,1.66406 0.95703,2.90625 0,0.58593 -0.10156,1.58203 -0.36328,2.99218 l -1.77734,10.33204 h -3.76954 l 1.76954,-10.33204 c 0.22265,-1.28906 0.34375,-2.01953 0.34375,-2.18359 0,-0.5 -0.12891,-0.86328 -0.36719,-1.11328 -0.2461,-0.27344 -0.59766,-0.39063 -1.02735,-0.39063 -0.90234,0 -1.72656,0.55079 -2.46484,1.67969 -0.59375,0.86719 -1.07812,2.41406 -1.46484,4.65235 l -1.3086,7.6875 h -3.77734 l 1.74609,-10.21875 c 0.19922,-1.16016 0.30469,-1.91797 0.30469,-2.25391 0,-0.49609 -0.12891,-0.86328 -0.39453,-1.14453 -0.25781,-0.28516 -0.59766,-0.40235 -1.00391,-0.40235 -0.5664,0 -1.11718,0.22657 -1.71484,0.75782 -0.58594,0.51172 -1.05078,1.25781 -1.38281,2.26953 -0.21875,0.58594 -0.46094,1.65234 -0.73828,3.23437 l -1.34375,7.75782 h -3.78125 l 2.91015,-16.89454"
       id="path169"
       inkscape:connector-curvature="0" />
    <path
       style="fill:#211e1e;fill-opacity:1;fill-rule:nonzero;stroke:none"
       d="m 240.25781,196.52734 h -9.40234 v 0.45313 c 0,1.09765 0.26953,2.03125 0.80078,2.70703 0.51953,0.68359 1.16406,1.01172 1.91406,1.01172 1.20703,0 2.19141,-0.79297 2.88672,-2.35547 l 3.37891,0.71484 c -0.67188,1.62891 -1.54688,2.85547 -2.62891,3.67188 -1.09375,0.82422 -2.32422,1.21484 -3.67969,1.21484 -1.8164,0 -3.32031,-0.71484 -4.50781,-2.09375 -1.18359,-1.42969 -1.78516,-3.32031 -1.78516,-5.73437 0,-2.58203 0.67969,-4.87891 2.03516,-6.85157 1.34375,-1.98046 3.25781,-2.98437 5.69922,-2.98437 1.63672,0 2.97266,0.625 3.98828,1.88281 1.03516,1.23438 1.55078,3.03516 1.55078,5.39453 0,1.10938 -0.0859,2.08985 -0.25,2.96875 z m -3.1875,-2.79687 0.0273,-0.45313 c 0,-1.26172 -0.23438,-2.21093 -0.70313,-2.8125 -0.47656,-0.625 -1.09766,-0.91797 -1.84766,-0.91797 -0.75781,0 -1.44921,0.33204 -2.0625,1.03907 -0.6289,0.71093 -1.04296,1.75781 -1.25,3.14453 h 5.83594"
       id="path171"
       inkscape:connector-curvature="0" />
    <path
       style="fill:#211e1e;fill-opacity:1;fill-rule:nonzero;stroke:none"
       d="m 249.76953,186.67187 h 3.61719 l -0.37891,2.19532 c 0.92188,-0.96094 1.76172,-1.625 2.52735,-2.01563 0.76562,-0.38281 1.55859,-0.57031 2.35937,-0.57031 1.09766,0 1.99219,0.40234 2.65625,1.17187 0.65625,0.78907 1.00781,1.82813 1.00781,3.17579 0,0.59765 -0.14843,1.70703 -0.40234,3.36718 l -1.64844,9.57032 h -3.76953 l 1.65625,-9.57032 c 0.24219,-1.42187 0.35547,-2.27343 0.35547,-2.5664 0,-0.62891 -0.15625,-1.09375 -0.4375,-1.41797 -0.28516,-0.32031 -0.65234,-0.46485 -1.10938,-0.46485 -0.51171,0 -1.03125,0.17188 -1.5664,0.58594 -0.75,0.58594 -1.3086,1.25391 -1.67188,2.05469 -0.37109,0.79687 -0.74218,2.26172 -1.12109,4.4375 l -1.20703,6.94141 h -3.78125 l 2.91406,-16.89454"
       id="path173"
       inkscape:connector-curvature="0" />
    <path
       style="fill:#211e1e;fill-opacity:1;fill-rule:nonzero;stroke:none"
       d="m 269.10547,190.06641 0.6289,-3.39454 h 1.91797 l 0.46875,-2.70703 4.41016,-3.21484 -1.10156,5.92187 h 2.37109 l -0.57422,3.39454 h -2.40625 l -1.30469,7.03906 c -0.22265,1.27734 -0.33203,2.02344 -0.33203,2.22656 0,0.37109 0.0937,0.66406 0.30469,0.83984 0.19531,0.1875 0.53125,0.26172 1.03125,0.26172 0.15625,0 0.57422,-0.0273 1.28516,-0.0898 l -0.6211,3.37109 c -0.66406,0.17188 -1.32422,0.23047 -2,0.23047 -1.3125,0 -2.28515,-0.29297 -2.92968,-0.88672 -0.65235,-0.59375 -0.97266,-1.46484 -0.97266,-2.625 0,-0.52734 0.16797,-1.72656 0.50391,-3.57031 l 1.24609,-6.79687 h -1.92578"
       id="path175"
       inkscape:connector-curvature="0" />
    <path
       style="fill:#211e1e;fill-opacity:1;fill-rule:nonzero;stroke:none"
       d="m 295.67187,196.54297 c 0,-2.75781 0.64063,-5.10156 1.88282,-7.07422 1.39453,-2.10547 3.40625,-3.1875 6.04297,-3.1875 1.96484,0 3.53125,0.68359 4.70703,2.01562 1.1875,1.35938 1.75781,3.19532 1.75781,5.58204 0,2.80859 -0.72266,5.17968 -2.19531,7.1289 -1.46094,1.97266 -3.36328,2.9375 -5.71485,2.9375 -1.91797,0 -3.47265,-0.64453 -4.66797,-1.97656 -1.19921,-1.33203 -1.8125,-3.14453 -1.8125,-5.42578 z m 10.66016,-3.25 c 0,-1.10547 -0.25781,-1.9961 -0.76953,-2.60938 -0.53516,-0.64062 -1.19141,-0.96484 -1.98828,-0.96484 -0.67969,0 -1.30469,0.24609 -1.88672,0.70703 -0.60156,0.46484 -1.11719,1.29688 -1.55078,2.42578 -0.45313,1.16016 -0.66797,2.34375 -0.66797,3.60156 0,1.22657 0.27734,2.22266 0.80859,2.92969 0.54297,0.6836 1.21875,1.02344 2.01563,1.02344 1.01953,0 1.85547,-0.52734 2.57422,-1.60938 0.99609,-1.48046 1.46484,-3.30859 1.46484,-5.5039"
       id="path177"
       inkscape:connector-curvature="0" />
    <path
       style="fill:#211e1e;fill-opacity:1;fill-rule:nonzero;stroke:none"
       d="m 326.31641,186.67187 -0.58594,3.33985 h -2.62891 l -2.33203,13.55469 h -3.77344 l 2.32422,-13.55469 H 317.25 l 0.5625,-3.33985 h 2.08594 l 0.29297,-1.73828 c 0.27343,-1.55468 0.55859,-2.63672 0.875,-3.20703 0.3125,-0.58594 0.75,-1.04297 1.35937,-1.375 0.5625,-0.32031 1.27734,-0.49609 2.08594,-0.49609 1.15625,0 2.36328,0.25781 3.64062,0.77344 l -0.70312,3.26562 c -0.89844,-0.38281 -1.63281,-0.55859 -2.19141,-0.55859 -0.34765,0 -0.64062,0.12109 -0.86328,0.38672 -0.17578,0.21484 -0.34375,0.78515 -0.51562,1.77734 l -0.19141,1.17187 h 2.62891"
       id="path179"
       inkscape:connector-curvature="0" />
    <path
       style="fill:#211e1e;fill-opacity:1;fill-rule:nonzero;stroke:none"
       d="m 351.72656,203.56641 h -3.95703 l 3.35547,-19.41407 h -5.76172 l 0.66797,-3.90625 h 15.20312 l -0.65625,3.90625 h -5.51953 l -3.33203,19.41407"
       id="path181"
       inkscape:connector-curvature="0" />
    <path
       style="fill:#211e1e;fill-opacity:1;fill-rule:nonzero;stroke:none"
       d="m 363.08203,196.54297 c 0,-2.75781 0.62109,-5.10156 1.86328,-7.07422 1.40235,-2.10547 3.41016,-3.1875 6.05469,-3.1875 1.97266,0 3.52734,0.68359 4.71484,2.01562 1.16797,1.35938 1.7461,3.19532 1.7461,5.58204 0,2.80859 -0.73438,5.17968 -2.19141,7.1289 -1.45703,1.97266 -3.35547,2.9375 -5.71875,2.9375 -1.90625,0 -3.47656,-0.64453 -4.67578,-1.97656 -1.19141,-1.33203 -1.79297,-3.14453 -1.79297,-5.42578 z m 10.66016,-3.25 c 0,-1.10547 -0.27344,-1.9961 -0.78125,-2.60938 -0.52344,-0.64062 -1.1875,-0.96484 -1.98828,-0.96484 -0.67579,0 -1.28907,0.24609 -1.89844,0.70703 -0.58594,0.46484 -1.10156,1.29688 -1.54297,2.42578 -0.42969,1.16016 -0.66797,2.34375 -0.66797,3.60156 0,1.22657 0.27734,2.22266 0.80859,2.92969 0.54297,0.6836 1.22657,1.02344 2.02344,1.02344 1.01172,0 1.875,-0.52734 2.58203,-1.60938 0.97657,-1.48046 1.46485,-3.30859 1.46485,-5.5039"
       id="path183"
       inkscape:connector-curvature="0" />
    <path
       style="fill:#211e1e;fill-opacity:1;fill-rule:nonzero;stroke:none"
       d="m 386.63281,186.67187 h 3.77344 l -1.71484,9.96875 c -0.19532,1.19922 -0.29297,1.95313 -0.29297,2.23829 0,0.53125 0.13281,0.95703 0.44531,1.32031 0.28906,0.33984 0.64844,0.5 1.08203,0.5 0.51563,0 1.01953,-0.17969 1.5,-0.52735 0.70313,-0.51171 1.24219,-1.16015 1.63672,-1.94921 0.42578,-0.81641 0.79297,-1.96094 1.0625,-3.4961 l 1.51562,-8.05469 h 3.78125 l -3.125,16.89454 h -3.5625 l 0.42188,-2.29297 c -1.53516,1.78515 -3.17969,2.67187 -4.95313,2.67187 -1.10156,0 -2.01171,-0.3789 -2.64453,-1.16797 -0.67578,-0.76562 -0.98437,-1.84765 -0.98437,-3.22265 0,-0.58594 0.13281,-1.71485 0.43359,-3.46485 l 1.625,-9.41797"
       id="path185"
       inkscape:connector-curvature="0" />
    <path
       style="fill:#211e1e;fill-opacity:1;fill-rule:nonzero;stroke:none"
       d="m 408.17578,186.67187 h 3.53516 l -0.56641,3.27735 c 1.32031,-2.42578 2.74609,-3.66797 4.29297,-3.66797 0.52344,0 1.125,0.16016 1.74219,0.46875 l -1.42969,3.77344 c -0.34766,-0.16407 -0.69531,-0.23047 -1.07813,-0.23047 -0.58593,0 -1.14843,0.21484 -1.66015,0.59765 -0.77735,0.60157 -1.39063,1.39063 -1.81641,2.34375 -0.41015,1.00391 -0.8164,2.67188 -1.23437,5.04297 l -0.92969,5.28907 h -3.76563 l 2.91016,-16.89454"
       id="path187"
       inkscape:connector-curvature="0" />
    <path
       style="fill:#211e1e;fill-opacity:1;fill-rule:nonzero;stroke:none"
       d="m 424.12109,186.67187 h 3.75391 l -2.88281,16.89454 h -3.77735 z m 1.09766,-6.42578 h 3.77344 l -0.71875,4.14453 h -3.75391 l 0.69922,-4.14453"
       id="path189"
       inkscape:connector-curvature="0" />
    <path
       style="fill:#211e1e;fill-opacity:1;fill-rule:nonzero;stroke:none"
       d="m 433.35156,198.86328 3.6211,-0.74609 c 0.3125,0.98437 0.72265,1.64062 1.20703,2.01172 0.49609,0.39062 1.14062,0.57031 1.94531,0.57031 0.76953,0 1.40234,-0.17969 1.89062,-0.5586 0.47266,-0.35546 0.71094,-0.78906 0.71094,-1.3164 0,-0.32031 -0.0898,-0.62891 -0.30469,-0.85156 -0.21093,-0.21485 -0.72265,-0.4961 -1.52734,-0.81641 -2.21875,-0.89453 -3.61719,-1.59766 -4.16016,-2.12109 -0.85156,-0.83594 -1.29687,-1.91797 -1.29687,-3.28516 0,-1.57813 0.56641,-2.88281 1.69531,-3.90625 1.11328,-1.03906 2.64453,-1.5625 4.60938,-1.5625 3.3164,0 5.23437,1.48047 5.75781,4.4375 l -3.46094,0.73047 c -0.40625,-1.33985 -1.36719,-2.00781 -2.88281,-2.00781 -0.71094,0 -1.26172,0.14453 -1.625,0.4375 -0.37109,0.30859 -0.55469,0.67187 -0.55469,1.10937 0,0.39844 0.14453,0.73438 0.42969,0.98438 0.22266,0.20312 0.94922,0.50781 2.18359,0.96093 1.80469,0.625 2.99219,1.25 3.61328,1.86328 0.90625,0.86719 1.34766,1.94922 1.34766,3.21094 0,1.71094 -0.57812,3.14453 -1.75,4.25391 -1.14453,1.11719 -2.66406,1.68359 -4.58594,1.68359 -3.75781,0 -6.07031,-1.68359 -6.86328,-5.08203"
       id="path191"
       inkscape:connector-curvature="0" />
    <path
       style="fill:#211e1e;fill-opacity:1;fill-rule:nonzero;stroke:none"
       d="m 456.49219,186.67187 h 3.5625 l -0.34766,2.05079 c 1.38672,-1.625 2.84766,-2.44141 4.38281,-2.44141 2.05078,0 3.22657,1.00391 3.55469,2.98437 0.49609,-0.86328 1.20703,-1.58203 2.11719,-2.14062 0.91015,-0.55078 1.83984,-0.84375 2.76562,-0.84375 1.08985,0 1.96875,0.375 2.58985,1.05469 0.66015,0.68359 0.97656,1.66406 0.97656,2.90625 0,0.58593 -0.11719,1.58203 -0.36328,2.99218 l -1.77735,10.33204 h -3.76953 l 1.77344,-10.33204 c 0.22266,-1.28906 0.33203,-2.01953 0.33203,-2.18359 0,-0.5 -0.1289,-0.86328 -0.36719,-1.11328 -0.25781,-0.27344 -0.59375,-0.39063 -1.02734,-0.39063 -0.91406,0 -1.74219,0.55079 -2.46875,1.67969 -0.57031,0.86719 -1.07422,2.41406 -1.44922,4.65235 l -1.32031,7.6875 h -3.77734 l 1.75,-10.21875 c 0.20703,-1.16016 0.3125,-1.91797 0.3125,-2.25391 0,-0.49609 -0.14454,-0.86328 -0.41407,-1.14453 -0.25781,-0.28516 -0.58984,-0.40235 -1.01562,-0.40235 -0.54297,0 -1.10156,0.22657 -1.70313,0.75782 -0.57031,0.51172 -1.04687,1.25781 -1.38672,2.26953 -0.20312,0.58594 -0.45312,1.65234 -0.73437,3.23437 l -1.34375,7.75782 h -3.77734 l 2.92578,-16.89454"
       id="path193"
       inkscape:connector-curvature="0" />
    <g
       clip-path="url(#clip2)"
       id="g197"
       style="clip-rule:nonzero">
      <path
         style="fill:#211e1e;fill-opacity:1;fill-rule:nonzero;stroke:none"
         d="m 0,159.53516 h 558.13281 v -3.5586 H 0 v 3.5586"
         id="path195"
         inkscape:connector-curvature="0" />
    </g>
  </g>
</svg>
